<?xml version="1.0" encoding="UTF-8" standalone="no"?>
<!-- Created with Inkscape (http://www.inkscape.org/) -->

<svg
   xmlns:dc="http://purl.org/dc/elements/1.1/"
   xmlns:cc="http://creativecommons.org/ns#"
   xmlns:rdf="http://www.w3.org/1999/02/22-rdf-syntax-ns#"
   xmlns:svg="http://www.w3.org/2000/svg"
   xmlns="http://www.w3.org/2000/svg"
   xmlns:xlink="http://www.w3.org/1999/xlink"
   xmlns:sodipodi="http://sodipodi.sourceforge.net/DTD/sodipodi-0.dtd"
   xmlns:inkscape="http://www.inkscape.org/namespaces/inkscape"
   width="70"
   height="70"
   viewBox="0 0 70 69.999994"
   id="svg2"
   version="1.1"
   inkscape:version="0.91 r13725"
   sodipodi:docname="icon.svg"
   inkscape:export-filename="C:\Users\matt\Downloads\logo.png"
   inkscape:export-xdpi="90"
   inkscape:export-ydpi="90">
  <defs
     id="defs4">
    <linearGradient
       inkscape:collect="always"
       id="linearGradient4516">
      <stop
         style="stop-color:#52c8ff;stop-opacity:1;"
         offset="0"
         id="stop4518" />
      <stop
         style="stop-color:#52baff;stop-opacity:1"
         offset="1"
         id="stop4520" />
    </linearGradient>
    <radialGradient
       inkscape:collect="always"
       xlink:href="#linearGradient4516"
       id="radialGradient4522"
       cx="1157.0001"
       cy="-134.71184"
       fx="1157.0001"
       fy="-134.71184"
       r="508.64658"
       gradientTransform="matrix(0,-0.07480543,0.15846112,0,160.14786,103.85497)"
       gradientUnits="userSpaceOnUse"
       spreadMethod="repeat" />
    <radialGradient
       inkscape:collect="always"
       xlink:href="#linearGradient4516"
       id="radialGradient4554"
       gradientUnits="userSpaceOnUse"
       gradientTransform="matrix(0,-0.07480543,0.15846112,0,160.14786,103.85497)"
       spreadMethod="repeat"
       cx="1157.0001"
       cy="-134.71184"
       fx="1157.0001"
       fy="-134.71184"
       r="508.64658" />
  </defs>
  <sodipodi:namedview
     id="base"
     pagecolor="#ffffff"
     bordercolor="#666666"
     borderopacity="1.0"
     inkscape:pageopacity="0.0"
     inkscape:pageshadow="2"
     inkscape:zoom="1"
     inkscape:cx="58.324335"
     inkscape:cy="38.324303"
     inkscape:document-units="px"
     inkscape:current-layer="layer1"
     showgrid="false"
     fit-margin-top="0"
     fit-margin-left="0"
     fit-margin-right="0"
     fit-margin-bottom="0"
     units="px"
     inkscape:window-width="1920"
     inkscape:window-height="1137"
     inkscape:window-x="1912"
     inkscape:window-y="-8"
     inkscape:window-maximized="1" />
  <metadata
     id="metadata7">
    <rdf:RDF>
      <cc:Work
         rdf:about="">
        <dc:format>image/svg+xml</dc:format>
        <dc:type
           rdf:resource="http://purl.org/dc/dcmitype/StillImage" />
        <dc:title></dc:title>
      </cc:Work>
    </rdf:RDF>
  </metadata>
  <g
     inkscape:label="Layer 1"
     inkscape:groupmode="layer"
     id="layer1"
     transform="translate(-684.45377,-397.64221)">
    <g
       id="g4542"
       transform="matrix(0.8660254,0.5,-0.5,0.8660254,297.28728,-247.80015)">
      <path
         style="font-style:normal;font-variant:normal;font-weight:normal;font-stretch:normal;font-size:180.00001526px;line-height:125%;font-family:Baveuse;-inkscape-font-specification:Baveuse;letter-spacing:0px;word-spacing:0px;fill:none;fill-opacity:1;stroke:#1022a4;stroke-width:5.00000048;stroke-linecap:round;stroke-linejoin:round;stroke-miterlimit:4;stroke-dasharray:none;stroke-opacity:1"
         d="m 44.060547,19.644531 c -1.654224,0.0074 -3.538119,0.404954 -5.652344,1.191407 l -24.898437,6.923828 10.949218,37.082031 25.617188,-6.710938 c 5.86642,-2.023246 8.606789,-5.879166 8.222656,-11.566406 C 57.938235,40.83612 55.559116,37.725009 51.162109,37.232422 53.581903,34.622749 53.740879,30.628287 51.638672,25.25 50.225781,21.495925 47.69984,19.628171 44.060547,19.644531 Z m -2.732422,15.291016 c 0.756682,0.02188 1.311186,0.603626 1.664063,1.742187 0.426825,1.260134 -0.41685,2.341228 -2.53125,3.244141 l -15.294922,4.025391 -1.359375,-3.861328 15.822265,-4.951172 c 0.0098,0.03174 0.464002,-0.02587 1.361328,-0.173828 0.116339,-0.01966 0.229794,-0.02852 0.337891,-0.02539 z m 6.693359,8.980469 c 1.047009,-0.07834 1.609462,0.518966 1.6875,1.794922 0.132394,1.480685 -0.538931,2.23917 -2.015625,2.273437 l -17.279297,5.875 -2.855468,-4.476563 19.984375,-5.392578 c 0.169347,-0.03883 0.328943,-0.06303 0.478515,-0.07422 z"
         transform="translate(684.45377,340.64221)"
         id="path4544"
         inkscape:connector-curvature="0" />
      <path
         style="font-style:normal;font-variant:normal;font-weight:normal;font-stretch:normal;font-size:180.00001526px;line-height:125%;font-family:Baveuse;-inkscape-font-specification:Baveuse;letter-spacing:0px;word-spacing:0px;fill:url(#radialGradient4554);fill-opacity:1;stroke:#5164ee;stroke-width:2.00000024;stroke-linecap:round;stroke-linejoin:round;stroke-miterlimit:4;stroke-dasharray:none;stroke-opacity:1"
         d="m 44.060547,17.439453 c -1.654224,0.0074 -3.538119,0.402999 -5.652344,1.189453 l -24.898437,6.925782 10.949218,37.082031 25.617188,-6.712891 c 5.86642,-2.023253 8.606789,-5.877213 8.222656,-11.564453 -0.360593,-5.728333 -2.739712,-8.839445 -7.136719,-9.332031 2.419794,-2.609674 2.57877,-6.604135 0.476563,-11.982422 -1.412891,-3.75408 -3.938832,-5.621831 -7.578125,-5.605469 z m -2.732422,15.291016 c 0.756682,0.02188 1.311186,0.601672 1.664063,1.740234 0.426825,1.260133 -0.41685,2.341221 -2.53125,3.244141 l -15.294922,4.027344 -1.359375,-3.861329 15.822265,-4.951171 c 0.0098,0.03174 0.464002,-0.02587 1.361328,-0.173829 0.116339,-0.01966 0.229794,-0.02852 0.337891,-0.02539 z m 6.693359,8.978515 c 1.047009,-0.07833 1.609462,0.520933 1.6875,1.796875 0.132394,1.480694 -0.538931,2.237218 -2.015625,2.271485 l -17.279297,5.876953 -2.855468,-4.476563 19.984375,-5.392578 c 0.169347,-0.03883 0.328943,-0.06498 0.478515,-0.07617 z"
         transform="translate(684.45377,340.64221)"
         id="path4546"
         inkscape:connector-curvature="0" />
      <path
         style="font-style:normal;font-variant:normal;font-weight:normal;font-stretch:normal;font-size:180.00001526px;line-height:125%;font-family:Baveuse;-inkscape-font-specification:Baveuse;letter-spacing:0px;word-spacing:0px;fill:#ffffff;fill-opacity:1;stroke:none;stroke-width:1px;stroke-linecap:butt;stroke-linejoin:miter;stroke-opacity:1"
         d="m 44.246094,19.628906 c -5.64858,0.65722 -10.84534,3.063296 -16.375,4.228516 l -11.50586,3.201172 0.751954,2.546875 10.753906,-2.990235 c 5.52966,-1.16522 10.72642,-3.573248 16.375,-4.230468 1.07834,-0.0362 2.159804,0.314377 2.996094,0.960937 2.217458,1.92353 3.001141,4.804911 3.425781,7.550781 0.12105,-0.54526 0.177555,-1.109667 0.152343,-1.685546 -0.39399,-3.04449 -1.069606,-6.447047 -3.578124,-8.623047 -0.83629,-0.64655 -1.917754,-0.995245 -2.996094,-0.958985 z m 0.912109,16.822266 c -0.27685,0.88581 -0.842797,1.672491 -1.742187,2.18164 -3.90317,2.377812 -8.701462,2.483187 -12.957032,4.003907 -2.2651,0.59621 -4.52978,1.192952 -6.794922,1.789062 -0.642159,-1.82458 -1.285294,-3.648146 -1.927734,-5.472656 -0.29517,0.0808 -0.590649,0.161691 -0.886719,0.238281 0.93802,2.66382 1.876875,5.328218 2.814453,7.992188 0.33814,-0.089 0.675542,-0.178588 1.013672,-0.267578 -0.23283,-0.36491 -0.464455,-0.72883 -0.697265,-1.09375 6.91432,-1.67857 13.69868,-3.844625 20.61914,-5.490235 0.79212,-1.09628 0.940104,-2.565899 0.558594,-3.880859 z m 3.746094,0.52539 c -0.93002,1.023841 -2.133549,1.836349 -3.480469,2.324219 0.8036,0.10507 1.607779,0.207791 2.41211,0.306641 0.169029,-0.0354 0.336619,-0.07285 0.505859,-0.107422 0.53409,0.018 1.016199,0.140444 1.443359,0.339844 0.19888,0.0233 0.396783,0.04721 0.595703,0.07031 2.96665,-0.0955 4.968227,2.577765 5.378907,5.140625 0.10598,0.42035 0.182721,0.85189 0.238281,1.28711 0.1738,-1.35234 0.08943,-2.745042 -0.238281,-4.044922 -0.41068,-2.56285 -2.412257,-5.236145 -5.378907,-5.140625 -0.49209,-0.057 -0.984732,-0.114918 -1.476562,-0.173828 l 0,-0.002 z m 2.974609,8.179688 c -0.18258,0.58736 -0.48945,1.131668 -0.93164,1.580078 -1.53618,1.48522 -4.032648,1.290408 -5.898438,2.242188 -5.17189,1.89211 -10.426405,3.561765 -15.634766,5.359375 -1.30457,-2.04576 -2.610845,-4.091299 -3.916015,-6.136719 -0.50544,0.12789 -1.010858,0.253943 -1.517578,0.376953 1.81125,2.83885 3.623003,5.678328 5.433593,8.517578 5.20836,-1.79761 10.462876,-3.467265 15.634766,-5.359375 1.86579,-0.95178 4.362258,-0.756957 5.898438,-2.242187 1.10798,-1.12358 1.37325,-2.851371 0.93164,-4.337891 z"
         id="path4548"
         transform="translate(684.45377,340.64221)"
         inkscape:connector-curvature="0" />
      <path
         style="font-style:normal;font-variant:normal;font-weight:normal;font-stretch:normal;font-size:180.00001526px;line-height:125%;font-family:Baveuse;-inkscape-font-specification:Baveuse;letter-spacing:0px;word-spacing:0px;fill:#8bdaff;fill-opacity:1;stroke:none;stroke-width:1px;stroke-linecap:butt;stroke-linejoin:miter;stroke-opacity:1"
         d="m 44.246094,20.730469 c -5.64858,0.65723 -10.84534,3.065238 -16.375,4.230469 l -11.50586,3.199218 0.751954,2.548828 10.753906,-2.990234 c 5.52966,-1.16521 10.72642,-3.573259 16.375,-4.230469 1.07834,-0.0362 2.159804,0.314388 2.996094,0.960938 2.217458,1.92352 3.001141,4.802948 3.425781,7.548828 0.12105,-0.54526 0.177555,-1.107724 0.152343,-1.683594 -0.39399,-3.04449 -1.069606,-6.447037 -3.578124,-8.623047 -0.83629,-0.64654 -1.917754,-0.997187 -2.996094,-0.960937 z m 0.912109,16.824219 c -0.27685,0.885829 -0.842797,1.67249 -1.742187,2.18164 -3.90317,2.37781 -8.701462,2.483196 -12.957032,4.003906 -2.2651,0.59622 -4.52978,1.192953 -6.794922,1.789063 -0.642159,-1.82458 -1.285294,-3.648156 -1.927734,-5.472656 -0.29517,0.0808 -0.590649,0.161711 -0.886719,0.238281 0.93802,2.66383 1.876875,5.328237 2.814453,7.992187 0.33814,-0.089 0.675542,-0.178578 1.013672,-0.267578 -0.23283,-0.36491 -0.464455,-0.730793 -0.697265,-1.095703 6.91432,-1.67857 13.69868,-3.844634 20.61914,-5.490234 0.79212,-1.09629 0.940104,-2.563947 0.558594,-3.878906 z m 3.746094,0.52539 c -0.93002,1.02385 -2.133549,1.836349 -3.480469,2.324219 0.8036,0.10507 1.607779,0.205837 2.41211,0.304687 0.169029,-0.0354 0.336619,-0.07296 0.505859,-0.107422 0.53409,0.018 1.016199,0.140464 1.443359,0.339844 0.19888,0.0233 0.396783,0.04907 0.595703,0.07227 2.96665,-0.0955 4.968227,2.577775 5.378907,5.140625 0.10598,0.42036 0.182721,0.849936 0.238281,1.285156 0.1738,-1.35234 0.08943,-2.743089 -0.238281,-4.042969 -0.41068,-2.56286 -2.412257,-5.236135 -5.378907,-5.140625 -0.49209,-0.057 -0.984732,-0.116871 -1.476562,-0.175781 z m 2.974609,8.177734 c -0.18258,0.58736 -0.48945,1.133622 -0.93164,1.582032 -1.53618,1.48524 -4.032648,1.290407 -5.898438,2.242187 -5.17189,1.89211 -10.426405,3.561765 -15.634766,5.359375 -1.30457,-2.04574 -2.610845,-4.091299 -3.916015,-6.136718 -0.50544,0.127869 -1.010858,0.253943 -1.517578,0.376953 1.81125,2.83886 3.623003,5.678338 5.433593,8.517578 5.20836,-1.79763 10.462876,-3.467265 15.634766,-5.359375 1.86579,-0.95178 4.362258,-0.758911 5.898438,-2.244141 1.10798,-1.12358 1.37325,-2.851351 0.93164,-4.337891 z"
         transform="translate(684.45377,340.64221)"
         id="path4550"
         inkscape:connector-curvature="0" />
      <path
         style="font-style:normal;font-variant:normal;font-weight:normal;font-stretch:normal;font-size:180.00001526px;line-height:125%;font-family:Baveuse;-inkscape-font-specification:Baveuse;letter-spacing:0px;word-spacing:0px;fill:#5607ff;fill-opacity:1;stroke:none;stroke-width:1px;stroke-linecap:butt;stroke-linejoin:miter;stroke-opacity:1"
         d="m 41.380859,30.541016 c -6.01674,1.10465 -11.685345,3.45174 -17.541015,5.15039 0.0891,0.31424 0.194397,0.633168 0.304687,0.955078 5.67932,-1.70604 11.226986,-3.899878 17.066407,-5.017578 l 0.03516,-0.002 0.03516,0.002 c 0.67879,0.0305 1.256134,0.280573 1.714844,0.664063 -0.14087,-0.82624 -0.673195,-1.564213 -1.615235,-1.751953 z m 7.013672,8.974609 c -6.82089,1.47348 -13.475,3.539181 -20.21289,5.306641 -0.47032,0.20169 -0.408547,0.605606 -0.128907,1.091796 6.73677,-1.77888 13.412684,-3.820613 20.214844,-5.314453 0.59239,0.0208 1.085249,0.212116 1.480469,0.509766 -0.0995,-0.73303 -0.534956,-1.39194 -1.353516,-1.59375 z m 7.916016,10.029297 c -0.86345,1.19494 -1.985432,2.216675 -3.357422,2.953125 -9.0538,3.38087 -18.694586,5.113721 -27.978516,7.800781 l 0.289063,0.980469 c 8.78449,-2.44454 17.748465,-4.330611 26.390625,-7.175781 2.08752,-0.93274 3.71353,-2.598654 4.65625,-4.558594 z"
         transform="translate(684.45377,340.64221)"
         id="path4552"
         inkscape:connector-curvature="0" />
    </g>
    <g
       id="g4535"
       transform="translate(-11.009827,40.560639)">
      <path
         id="path4524"
         transform="translate(684.45377,340.64221)"
         d="m 44.060547,19.644531 c -1.654224,0.0074 -3.538119,0.404954 -5.652344,1.191407 l -24.898437,6.923828 10.949218,37.082031 25.617188,-6.710938 c 5.86642,-2.023246 8.606789,-5.879166 8.222656,-11.566406 C 57.938235,40.83612 55.559116,37.725009 51.162109,37.232422 53.581903,34.622749 53.740879,30.628287 51.638672,25.25 50.225781,21.495925 47.69984,19.628171 44.060547,19.644531 Z m -2.732422,15.291016 c 0.756682,0.02188 1.311186,0.603626 1.664063,1.742187 0.426825,1.260134 -0.41685,2.341228 -2.53125,3.244141 l -15.294922,4.025391 -1.359375,-3.861328 15.822265,-4.951172 c 0.0098,0.03174 0.464002,-0.02587 1.361328,-0.173828 0.116339,-0.01966 0.229794,-0.02852 0.337891,-0.02539 z m 6.693359,8.980469 c 1.047009,-0.07834 1.609462,0.518966 1.6875,1.794922 0.132394,1.480685 -0.538931,2.23917 -2.015625,2.273437 l -17.279297,5.875 -2.855468,-4.476563 19.984375,-5.392578 c 0.169347,-0.03883 0.328943,-0.06303 0.478515,-0.07422 z"
         style="font-style:normal;font-variant:normal;font-weight:normal;font-stretch:normal;font-size:180.00001526px;line-height:125%;font-family:Baveuse;-inkscape-font-specification:Baveuse;letter-spacing:0px;word-spacing:0px;fill:none;fill-opacity:1;stroke:#1022a4;stroke-width:5.00000048;stroke-linecap:round;stroke-linejoin:round;stroke-miterlimit:4;stroke-dasharray:none;stroke-opacity:1"
         inkscape:connector-curvature="0" />
      <path
         id="path4189"
         transform="translate(684.45377,340.64221)"
         d="m 44.060547,17.439453 c -1.654224,0.0074 -3.538119,0.402999 -5.652344,1.189453 l -24.898437,6.925782 10.949218,37.082031 25.617188,-6.712891 c 5.86642,-2.023253 8.606789,-5.877213 8.222656,-11.564453 -0.360593,-5.728333 -2.739712,-8.839445 -7.136719,-9.332031 2.419794,-2.609674 2.57877,-6.604135 0.476563,-11.982422 -1.412891,-3.75408 -3.938832,-5.621831 -7.578125,-5.605469 z m -2.732422,15.291016 c 0.756682,0.02188 1.311186,0.601672 1.664063,1.740234 0.426825,1.260133 -0.41685,2.341221 -2.53125,3.244141 l -15.294922,4.027344 -1.359375,-3.861329 15.822265,-4.951171 c 0.0098,0.03174 0.464002,-0.02587 1.361328,-0.173829 0.116339,-0.01966 0.229794,-0.02852 0.337891,-0.02539 z m 6.693359,8.978515 c 1.047009,-0.07833 1.609462,0.520933 1.6875,1.796875 0.132394,1.480694 -0.538931,2.237218 -2.015625,2.271485 l -17.279297,5.876953 -2.855468,-4.476563 19.984375,-5.392578 c 0.169347,-0.03883 0.328943,-0.06498 0.478515,-0.07617 z"
         style="font-style:normal;font-variant:normal;font-weight:normal;font-stretch:normal;font-size:180.00001526px;line-height:125%;font-family:Baveuse;-inkscape-font-specification:Baveuse;letter-spacing:0px;word-spacing:0px;fill:url(#radialGradient4522);fill-opacity:1;stroke:#5164ee;stroke-width:2.00000024;stroke-linecap:round;stroke-linejoin:round;stroke-miterlimit:4;stroke-dasharray:none;stroke-opacity:1"
         inkscape:connector-curvature="0" />
      <path
         transform="translate(684.45377,340.64221)"
         id="path4255"
         d="m 44.246094,19.628906 c -5.64858,0.65722 -10.84534,3.063296 -16.375,4.228516 l -11.50586,3.201172 0.751954,2.546875 10.753906,-2.990235 c 5.52966,-1.16522 10.72642,-3.573248 16.375,-4.230468 1.07834,-0.0362 2.159804,0.314377 2.996094,0.960937 2.217458,1.92353 3.001141,4.804911 3.425781,7.550781 0.12105,-0.54526 0.177555,-1.109667 0.152343,-1.685546 -0.39399,-3.04449 -1.069606,-6.447047 -3.578124,-8.623047 -0.83629,-0.64655 -1.917754,-0.995245 -2.996094,-0.958985 z m 0.912109,16.822266 c -0.27685,0.88581 -0.842797,1.672491 -1.742187,2.18164 -3.90317,2.377812 -8.701462,2.483187 -12.957032,4.003907 -2.2651,0.59621 -4.52978,1.192952 -6.794922,1.789062 -0.642159,-1.82458 -1.285294,-3.648146 -1.927734,-5.472656 -0.29517,0.0808 -0.590649,0.161691 -0.886719,0.238281 0.93802,2.66382 1.876875,5.328218 2.814453,7.992188 0.33814,-0.089 0.675542,-0.178588 1.013672,-0.267578 -0.23283,-0.36491 -0.464455,-0.72883 -0.697265,-1.09375 6.91432,-1.67857 13.69868,-3.844625 20.61914,-5.490235 0.79212,-1.09628 0.940104,-2.565899 0.558594,-3.880859 z m 3.746094,0.52539 c -0.93002,1.023841 -2.133549,1.836349 -3.480469,2.324219 0.8036,0.10507 1.607779,0.207791 2.41211,0.306641 0.169029,-0.0354 0.336619,-0.07285 0.505859,-0.107422 0.53409,0.018 1.016199,0.140444 1.443359,0.339844 0.19888,0.0233 0.396783,0.04721 0.595703,0.07031 2.96665,-0.0955 4.968227,2.577765 5.378907,5.140625 0.10598,0.42035 0.182721,0.85189 0.238281,1.28711 0.1738,-1.35234 0.08943,-2.745042 -0.238281,-4.044922 -0.41068,-2.56285 -2.412257,-5.236145 -5.378907,-5.140625 -0.49209,-0.057 -0.984732,-0.114918 -1.476562,-0.173828 l 0,-0.002 z m 2.974609,8.179688 c -0.18258,0.58736 -0.48945,1.131668 -0.93164,1.580078 -1.53618,1.48522 -4.032648,1.290408 -5.898438,2.242188 -5.17189,1.89211 -10.426405,3.561765 -15.634766,5.359375 -1.30457,-2.04576 -2.610845,-4.091299 -3.916015,-6.136719 -0.50544,0.12789 -1.010858,0.253943 -1.517578,0.376953 1.81125,2.83885 3.623003,5.678328 5.433593,8.517578 5.20836,-1.79761 10.462876,-3.467265 15.634766,-5.359375 1.86579,-0.95178 4.362258,-0.756957 5.898438,-2.242187 1.10798,-1.12358 1.37325,-2.851371 0.93164,-4.337891 z"
         style="font-style:normal;font-variant:normal;font-weight:normal;font-stretch:normal;font-size:180.00001526px;line-height:125%;font-family:Baveuse;-inkscape-font-specification:Baveuse;letter-spacing:0px;word-spacing:0px;fill:#ffffff;fill-opacity:1;stroke:none;stroke-width:1px;stroke-linecap:butt;stroke-linejoin:miter;stroke-opacity:1"
         inkscape:connector-curvature="0" />
      <path
         id="path4492"
         transform="translate(684.45377,340.64221)"
         d="m 44.246094,20.730469 c -5.64858,0.65723 -10.84534,3.065238 -16.375,4.230469 l -11.50586,3.199218 0.751954,2.548828 10.753906,-2.990234 c 5.52966,-1.16521 10.72642,-3.573259 16.375,-4.230469 1.07834,-0.0362 2.159804,0.314388 2.996094,0.960938 2.217458,1.92352 3.001141,4.802948 3.425781,7.548828 0.12105,-0.54526 0.177555,-1.107724 0.152343,-1.683594 -0.39399,-3.04449 -1.069606,-6.447037 -3.578124,-8.623047 -0.83629,-0.64654 -1.917754,-0.997187 -2.996094,-0.960937 z m 0.912109,16.824219 c -0.27685,0.885829 -0.842797,1.67249 -1.742187,2.18164 -3.90317,2.37781 -8.701462,2.483196 -12.957032,4.003906 -2.2651,0.59622 -4.52978,1.192953 -6.794922,1.789063 -0.642159,-1.82458 -1.285294,-3.648156 -1.927734,-5.472656 -0.29517,0.0808 -0.590649,0.161711 -0.886719,0.238281 0.93802,2.66383 1.876875,5.328237 2.814453,7.992187 0.33814,-0.089 0.675542,-0.178578 1.013672,-0.267578 -0.23283,-0.36491 -0.464455,-0.730793 -0.697265,-1.095703 6.91432,-1.67857 13.69868,-3.844634 20.61914,-5.490234 0.79212,-1.09629 0.940104,-2.563947 0.558594,-3.878906 z m 3.746094,0.52539 c -0.93002,1.02385 -2.133549,1.836349 -3.480469,2.324219 0.8036,0.10507 1.607779,0.205837 2.41211,0.304687 0.169029,-0.0354 0.336619,-0.07296 0.505859,-0.107422 0.53409,0.018 1.016199,0.140464 1.443359,0.339844 0.19888,0.0233 0.396783,0.04907 0.595703,0.07227 2.96665,-0.0955 4.968227,2.577775 5.378907,5.140625 0.10598,0.42036 0.182721,0.849936 0.238281,1.285156 0.1738,-1.35234 0.08943,-2.743089 -0.238281,-4.042969 -0.41068,-2.56286 -2.412257,-5.236135 -5.378907,-5.140625 -0.49209,-0.057 -0.984732,-0.116871 -1.476562,-0.175781 z m 2.974609,8.177734 c -0.18258,0.58736 -0.48945,1.133622 -0.93164,1.582032 -1.53618,1.48524 -4.032648,1.290407 -5.898438,2.242187 -5.17189,1.89211 -10.426405,3.561765 -15.634766,5.359375 -1.30457,-2.04574 -2.610845,-4.091299 -3.916015,-6.136718 -0.50544,0.127869 -1.010858,0.253943 -1.517578,0.376953 1.81125,2.83886 3.623003,5.678338 5.433593,8.517578 5.20836,-1.79763 10.462876,-3.467265 15.634766,-5.359375 1.86579,-0.95178 4.362258,-0.758911 5.898438,-2.244141 1.10798,-1.12358 1.37325,-2.851351 0.93164,-4.337891 z"
         style="font-style:normal;font-variant:normal;font-weight:normal;font-stretch:normal;font-size:180.00001526px;line-height:125%;font-family:Baveuse;-inkscape-font-specification:Baveuse;letter-spacing:0px;word-spacing:0px;fill:#8bdaff;fill-opacity:1;stroke:none;stroke-width:1px;stroke-linecap:butt;stroke-linejoin:miter;stroke-opacity:1"
         inkscape:connector-curvature="0" />
      <path
         id="path4495"
         transform="translate(684.45377,340.64221)"
         d="m 41.380859,30.541016 c -6.01674,1.10465 -11.685345,3.45174 -17.541015,5.15039 0.0891,0.31424 0.194397,0.633168 0.304687,0.955078 5.67932,-1.70604 11.226986,-3.899878 17.066407,-5.017578 l 0.03516,-0.002 0.03516,0.002 c 0.67879,0.0305 1.256134,0.280573 1.714844,0.664063 -0.14087,-0.82624 -0.673195,-1.564213 -1.615235,-1.751953 z m 7.013672,8.974609 c -6.82089,1.47348 -13.475,3.539181 -20.21289,5.306641 -0.47032,0.20169 -0.408547,0.605606 -0.128907,1.091796 6.73677,-1.77888 13.412684,-3.820613 20.214844,-5.314453 0.59239,0.0208 1.085249,0.212116 1.480469,0.509766 -0.0995,-0.73303 -0.534956,-1.39194 -1.353516,-1.59375 z m 7.916016,10.029297 c -0.86345,1.19494 -1.985432,2.216675 -3.357422,2.953125 -9.0538,3.38087 -18.694586,5.113721 -27.978516,7.800781 l 0.289063,0.980469 c 8.78449,-2.44454 17.748465,-4.330611 26.390625,-7.175781 2.08752,-0.93274 3.71353,-2.598654 4.65625,-4.558594 z"
         style="font-style:normal;font-variant:normal;font-weight:normal;font-stretch:normal;font-size:180.00001526px;line-height:125%;font-family:Baveuse;-inkscape-font-specification:Baveuse;letter-spacing:0px;word-spacing:0px;fill:#5607ff;fill-opacity:1;stroke:none;stroke-width:1px;stroke-linecap:butt;stroke-linejoin:miter;stroke-opacity:1"
         inkscape:connector-curvature="0" />
    </g>
  </g>
</svg>
