<?xml version="1.0" encoding="UTF-8" standalone="no"?>
<!-- Created with Inkscape (http://www.inkscape.org/) -->

<svg
   xmlns:dc="http://purl.org/dc/elements/1.1/"
   xmlns:cc="http://creativecommons.org/ns#"
   xmlns:rdf="http://www.w3.org/1999/02/22-rdf-syntax-ns#"
   xmlns:svg="http://www.w3.org/2000/svg"
   xmlns="http://www.w3.org/2000/svg"
   xmlns:xlink="http://www.w3.org/1999/xlink"
   xmlns:sodipodi="http://sodipodi.sourceforge.net/DTD/sodipodi-0.dtd"
   xmlns:inkscape="http://www.inkscape.org/namespaces/inkscape"
   width="300"
   height="127"
   viewBox="0 0 300 126.99999"
   id="svg2"
   version="1.1"
   inkscape:version="0.91 r13725"
   sodipodi:docname="logo.svg"
   inkscape:export-filename="C:\Users\matt\Downloads\logo.png"
   inkscape:export-xdpi="90"
   inkscape:export-ydpi="90">
  <defs
     id="defs4">
    <linearGradient
       inkscape:collect="always"
       id="linearGradient4516">
      <stop
         style="stop-color:#52c8ff;stop-opacity:1;"
         offset="0"
         id="stop4518" />
      <stop
         style="stop-color:#52baff;stop-opacity:1"
         offset="1"
         id="stop4520" />
    </linearGradient>
    <radialGradient
       inkscape:collect="always"
       xlink:href="#linearGradient4516"
       id="radialGradient4522"
       cx="1157.0001"
       cy="-134.71184"
       fx="1157.0001"
       fy="-134.71184"
       r="508.64658"
       gradientTransform="matrix(0,-0.07480543,0.15846112,0,844.60163,444.49718)"
       gradientUnits="userSpaceOnUse"
       spreadMethod="repeat" />
  </defs>
  <sodipodi:namedview
     id="base"
     pagecolor="#ffffff"
     bordercolor="#666666"
     borderopacity="1.0"
     inkscape:pageopacity="0.0"
     inkscape:pageshadow="2"
     inkscape:zoom="1"
     inkscape:cx="58.324335"
     inkscape:cy="38.324303"
     inkscape:document-units="px"
     inkscape:current-layer="layer1"
     showgrid="false"
     fit-margin-top="0"
     fit-margin-left="0"
     fit-margin-right="0"
     fit-margin-bottom="0"
     units="px"
     inkscape:window-width="1920"
     inkscape:window-height="1137"
     inkscape:window-x="1912"
     inkscape:window-y="-8"
     inkscape:window-maximized="1" />
  <metadata
     id="metadata7">
    <rdf:RDF>
      <cc:Work
         rdf:about="">
        <dc:format>image/svg+xml</dc:format>
        <dc:type
           rdf:resource="http://purl.org/dc/dcmitype/StillImage" />
        <dc:title></dc:title>
      </cc:Work>
    </rdf:RDF>
  </metadata>
  <g
     inkscape:label="Layer 1"
     inkscape:groupmode="layer"
     id="layer1"
     transform="translate(-684.45377,-340.64221)">
    <path
       d="m 946.38691,428.60697 -0.38981,3.44784 23.45109,7.08431 q 3.16837,0.45818 3.68757,-1.9277 0.5192,-2.38587 -2.35195,-3.12728 l -24.3969,-5.47717 z m 32.44204,11.206 q -3.58916,8.02156 -15.76959,5.0305 l 7.37187,13.57766 -13.92909,-2.92834 -3.83412,-14.41266 -4.03836,-0.63141 -3.46658,11.19029 -8.31055,-1.58033 8.0309,-39.47958 26.55042,7.21609 q 16.22875,4.34503 7.3951,22.01778 z m -54.26561,-32.17613 q 12.71374,2.9649 10.39914,16.23338 -2.01398,11.50483 -16.25654,10.06402 l -11.7849,-2.52009 q -0.58868,4.38398 1.96385,5.22985 l 20.54366,2.00967 -2.51265,9.46715 -18.54971,-3.16041 q -14.67429,-2.01012 -11.74834,-14.83244 l 0.91513,-13.43389 q 1.94843,-12.67131 15.69671,-10.50224 l 10.86995,1.37354 0.4637,0.0716 z m -17.47196,12.54141 q -4.1636,-0.39027 -4.33585,4.96287 l 17.25046,2.40713 q 2.13055,0.52945 2.52999,-2.12397 0.39941,-2.65343 -1.63505,-2.81613 l -13.80955,-2.4299 z m -18.20575,-2.52201 -11.33951,-0.17156 -1.86766,24.40341 -8.31886,0.0199 0.399,-25.83949 -10.1382,-0.14517 -0.82648,-14.32774 34.24419,0.28028 -2.15248,15.78037 z m -37.81412,14.46265 q -0.0819,8.88839 -12.66097,9.03556 l -21.60228,0.50851 0.67832,-10.04425 22.78896,0.9529 q 2.77195,0.18297 2.8001,-2.74675 0.027,-2.97934 -3.10133,-2.8064 l -11.85505,-0.11809 q -13.45712,0.51535 -13.04309,-11.65742 0.83144,-12.18261 12.02029,-13.58782 l 22.97884,-1.78205 -0.11411,17.67632 -22.27622,-1.31249 q -2.28813,0.35174 -2.32403,2.98376 0.0151,2.58119 1.99395,2.38567 l 12.30529,-0.63718 q 11.21209,-0.51216 11.55803,8.76332 l -0.1467,2.38641 z m -48.66809,-7.86666 q 0.88633,-6.20267 -4.33903,-5.94612 l -24.85382,4.23483 -1.5435,-14.07033 20.64328,-3.44613 q 13.62113,-2.03104 16.05053,12.38647 l 1.72355,18.74927 q 0.14963,4.03248 2.06418,4.61022 -6.38146,1.4907 -8.72222,-1.58748 -1.35798,3.75751 -5.65316,4.70604 l -10.97515,0.52396 q -13.49999,0.51704 -14.54654,-10.91109 -0.4396,-8.74865 12.6887,-10.5225 l 12.75058,-1.03003 q 3.01767,-0.25028 4.7126,2.30289 z m -16.96326,4.66891 q -1.85885,0.26576 -1.69925,3.14712 0.20507,2.8261 2.98386,2.35356 l 14.70039,-1.40635 q 1.88417,-0.0686 1.44535,-2.66768 -0.33521,-2.61099 -2.18655,-2.69609 l -15.2438,1.26944 z m -14.59456,17.70762 -29.62167,7.81984 -9.99188,-40.39497 14.4346,-2.5123 2.82234,32.12043 20.90764,-6.68742 1.44897,9.65442 z m -71.6441,-2.39141 15.13548,-4.5362 q 3.1195,-1.45968 2.40968,-3.32728 -0.67681,-1.93038 -2.06326,-1.64783 -1.33695,0.26686 -1.35346,0.21977 l -15.63061,5.47788 1.50217,3.81366 z m 2.59159,5.35168 3.0207,4.37861 17.05006,-6.45098 q 2.21175,-0.12563 1.93106,-2.33852 -0.21466,-2.18151 -2.22832,-1.64783 l -19.7735,6.05872 z m -2.52475,15.55317 -12.31464,-36.6929 24.62609,-7.75387 q 10.00224,-4.11227 13.38621,3.97018 3.44999,7.9569 -0.0325,11.99046 6.61878,0.51768 7.47741,9.08675 0.89164,8.50629 -7.79018,11.83381 l -25.35235,7.56557 z m 247.1131,-109.15785 q 12.44989,3.84606 9.11519,16.91672 -2.8985,11.33281 -16.99104,8.89981 l -11.55803,-3.33749 q -0.92617,4.33093 1.554,5.35303 l 20.33253,3.44101 -3.23817,9.26578 -18.25501,-4.44919 q -14.47899,-3.03097 -10.56909,-15.61392 l 1.95182,-13.3335 q 2.92334,-12.50072 16.46659,-9.37599 l 10.73423,2.13005 0.45698,0.10369 z m -18.39484,11.28548 q -4.12213,-0.68041 -4.70796,4.6462 l 17.01748,3.60707 q 2.08384,0.67704 2.68746,-1.94127 0.60357,-2.6183 -1.41276,-2.92285 l -13.58422,-3.38915 z m -18.91067,21.52943 -30.66568,-2.06036 4.80667,-41.24474 14.48621,2.22739 -8.64926,31.16548 22.05577,0.35364 -2.03371,9.55859 z m -66.58656,-25.06937 15.80027,0.73972 q 3.61522,-0.45638 3.61893,-2.49181 0.004,-2.03543 -1.40243,-2.16962 -1.51181,-0.0872 -1.35116,-0.23212 l -17.03442,0.47082 0.36881,3.68301 z m 0.0534,5.66105 1.78754,5.25728 18.45138,-0.73353 q 2.06668,0.796 2.49048,-1.32829 0.52816,-2.1217 -1.45185,-2.27013 l -21.27755,-0.92533 z m -7.21804,13.77157 2.22807,-39.31454 24.86829,1.36196 q 10.81436,-0.22803 11.41083,8.47495 0.60059,8.55414 -4.43258,11.20943 6.13696,2.78361 4.08191,11.07323 -2.05368,8.24003 -11.93163,8.5906 l -26.22489,-1.39563 z m -37.79403,-16.82494 15.792,-0.88542 q 3.54235,-0.82458 3.31505,-2.8485 -0.22729,-2.02391 -1.64039,-2.0131 -1.51285,0.0684 -1.36964,-0.0922 l -16.88152,2.21548 0.7845,3.62369 z m 0.69545,5.62252 2.37358,5.04321 18.26049,-2.622 q 2.14491,0.57934 2.32522,-1.57602 0.28435,-2.16349 -1.70093,-2.10795 l -21.25836,1.26276 z m -5.61335,14.43163 -2.24565,-39.31365 24.87767,-1.197 q 10.72539,-1.33606 12.30581,7.25494 1.56764,8.44261 -3.13484,11.59871 6.41692,2.13782 5.31446,10.58988 -1.1068,8.40261 -10.88728,9.76442 l -26.23017,1.3027 z m -8.32374,-10.55709 q 3.22781,12.90697 -6.30517,13.84409 l -14.80843,2.73315 q -10.45361,1.65614 -12.48933,-10.049 l -8.93416,-25.72681 13.52334,-3.86795 7.92581,28.43052 14.32414,-2.49559 -3.95789,-25.8035 8.35724,-2.59625 2.36445,25.53134 z m -74.66914,8.75574 15.29403,-4.02683 q 3.1716,-1.35437 2.53136,-3.24457 -0.60493,-1.95182 -2.00099,-1.71586 -1.34599,0.22194 -1.36075,0.17433 l -15.82371,4.95136 1.36006,3.86157 z m 2.39187,5.43509 2.85675,4.47699 17.27829,-5.87634 q 2.21504,-0.0514 2.01645,-2.27243 -0.13378,-2.18735 -2.16595,-1.72139 l -19.98554,5.39317 z m -3.09893,15.45903 -10.94871,-37.08231 24.89787,-6.92486 q 10.14828,-3.77497 13.23095,4.41574 3.15331,8.06743 -0.47638,11.98194 6.59551,0.73888 7.1364,9.33138 0.5762,8.53086 -8.22343,11.56573 l -25.6167,6.71238 z"
       style="font-style:normal;font-variant:normal;font-weight:normal;font-stretch:normal;font-size:180.00001526px;line-height:125%;font-family:Baveuse;-inkscape-font-specification:Baveuse;letter-spacing:0px;word-spacing:0px;fill:none;fill-opacity:1;stroke:#1022a4;stroke-width:5.00000048;stroke-linecap:round;stroke-linejoin:round;stroke-miterlimit:4;stroke-dasharray:none;stroke-opacity:1"
       id="path4524"
       inkscape:connector-curvature="0" />
    <path
       inkscape:connector-curvature="0"
       id="path4189"
       style="font-style:normal;font-variant:normal;font-weight:normal;font-stretch:normal;font-size:180.00001526px;line-height:125%;font-family:Baveuse;-inkscape-font-specification:Baveuse;letter-spacing:0px;word-spacing:0px;fill:url(#radialGradient4522);fill-opacity:1;stroke:#5164ee;stroke-width:2.00000024;stroke-linecap:round;stroke-linejoin:round;stroke-miterlimit:4;stroke-dasharray:none;stroke-opacity:1"
       d="m 946.38691,426.4012 -0.38981,3.44784 23.45109,7.0843 q 3.16837,0.45819 3.68757,-1.9277 0.5192,-2.38586 -2.35195,-3.12728 l -24.3969,-5.47716 z m 32.44204,11.206 q -3.58916,8.02156 -15.76959,5.03049 l 7.37187,13.57767 -13.92909,-2.92834 -3.83412,-14.41266 -4.03836,-0.6314 -3.46658,11.19028 -8.31055,-1.58032 8.0309,-39.47959 26.55042,7.21611 q 16.22875,4.34502 7.3951,22.01776 z m -54.26561,-32.17613 q 12.71374,2.96489 10.39914,16.23339 -2.01398,11.50482 -16.25654,10.06402 l -11.7849,-2.5201 q -0.58868,4.38398 1.96385,5.22986 l 20.54366,2.00966 -2.51265,9.46714 -18.54971,-3.16041 q -14.67429,-2.01011 -11.74834,-14.83244 l 0.91513,-13.43388 q 1.94843,-12.67131 15.69671,-10.50225 l 10.86995,1.37354 0.4637,0.0716 z m -17.47196,12.54141 q -4.1636,-0.39027 -4.33585,4.96287 l 17.25046,2.40713 q 2.13055,0.52947 2.52999,-2.12396 0.39941,-2.65344 -1.63505,-2.81614 l -13.80955,-2.4299 z m -18.20575,-2.52201 -11.33951,-0.17157 -1.86766,24.40343 -8.31886,0.0198 0.399,-25.83949 -10.1382,-0.14515 -0.82648,-14.32775 34.24419,0.28029 -2.15248,15.78037 z m -37.81412,14.46265 q -0.0819,8.88839 -12.66097,9.03557 l -21.60228,0.50852 0.67832,-10.04427 22.78896,0.9529 q 2.77195,0.18298 2.8001,-2.74674 0.027,-2.97934 -3.10133,-2.80641 l -11.85505,-0.1181 q -13.45712,0.51536 -13.04309,-11.65741 0.83144,-12.1826 12.02029,-13.58782 l 22.97884,-1.78204 -0.11411,17.6763 -22.27622,-1.31248 q -2.28813,0.35173 -2.32403,2.98376 0.0151,2.5812 1.99395,2.38567 l 12.30529,-0.63718 q 11.21209,-0.51215 11.55803,8.76332 l -0.1467,2.38641 z m -48.66809,-7.86666 q 0.88633,-6.20266 -4.33903,-5.94613 l -24.85382,4.23485 -1.5435,-14.07034 20.64328,-3.44612 q 13.62113,-2.03104 16.05053,12.38645 l 1.72355,18.74927 q 0.14963,4.0325 2.06418,4.61024 -6.38146,1.49069 -8.72222,-1.58749 -1.35798,3.75751 -5.65316,4.70605 l -10.97515,0.52394 q -13.49999,0.51704 -14.54654,-10.91107 -0.4396,-8.74866 12.6887,-10.52252 l 12.75058,-1.03002 q 3.01767,-0.25027 4.7126,2.30289 z m -16.96326,4.6689 q -1.85885,0.26577 -1.69925,3.14714 0.20507,2.82609 2.98386,2.35355 l 14.70039,-1.40634 q 1.88417,-0.0686 1.44535,-2.66768 -0.33521,-2.611 -2.18655,-2.6961 l -15.2438,1.26943 z m -14.59456,17.70763 -29.62167,7.81984 -9.99188,-40.39497 14.4346,-2.51229 2.82234,32.12041 20.90764,-6.68741 1.44897,9.65442 z m -71.6441,-2.3914 15.13548,-4.53621 q 3.1195,-1.45968 2.40968,-3.32728 -0.67681,-1.93038 -2.06326,-1.64783 -1.33695,0.26685 -1.35346,0.21977 l -15.63061,5.47787 1.50217,3.81368 z m 2.59159,5.35166 3.0207,4.37861 17.05006,-6.45097 q 2.21175,-0.12564 1.93106,-2.33853 -0.21466,-2.1815 -2.22832,-1.64782 l -19.7735,6.05871 z m -2.52475,15.55317 -12.31464,-36.69289 24.62609,-7.75388 q 10.00224,-4.11227 13.38621,3.97019 3.44999,7.9569 -0.0325,11.99047 6.61878,0.51767 7.47741,9.08674 0.89164,8.50629 -7.79018,11.8338 l -25.35235,7.56557 z m 247.1131,-109.15783 q 12.44989,3.84605 9.11519,16.91672 -2.8985,11.3328 -16.99104,8.8998 l -11.55803,-3.33749 q -0.92617,4.33094 1.554,5.35304 l 20.33253,3.44101 -3.23817,9.26578 -18.25501,-4.4492 q -14.47899,-3.03097 -10.56909,-15.61392 l 1.95182,-13.3335 q 2.92334,-12.50072 16.46659,-9.37598 l 10.73423,2.13004 0.45698,0.1037 z m -18.39484,11.28548 q -4.12213,-0.68042 -4.70796,4.64618 l 17.01748,3.60709 q 2.08384,0.67702 2.68746,-1.94128 0.60357,-2.6183 -1.41276,-2.92286 l -13.58422,-3.38913 z m -18.91067,21.52943 -30.66568,-2.06035 4.80667,-41.24474 14.48621,2.22737 -8.64926,31.16549 22.05577,0.35364 -2.03371,9.55859 z m -66.58656,-25.06938 15.80027,0.73971 q 3.61522,-0.45638 3.61893,-2.4918 0.004,-2.03542 -1.40243,-2.16961 -1.51181,-0.0872 -1.35116,-0.23213 l -17.03442,0.47082 0.36881,3.68301 z m 0.0534,5.66105 1.78754,5.25728 18.45138,-0.73353 q 2.06668,0.796 2.49048,-1.32829 0.52816,-2.1217 -1.45185,-2.27014 l -21.27755,-0.92532 z m -7.21804,13.77157 2.22807,-39.31455 24.86829,1.36197 q 10.81436,-0.22803 11.41083,8.47495 0.60059,8.55414 -4.43258,11.20942 6.13696,2.78361 4.08191,11.07325 -2.05368,8.24003 -11.93163,8.5906 l -26.22489,-1.39564 z m -37.79403,-16.82495 15.792,-0.88541 q 3.54235,-0.82458 3.31505,-2.84849 -0.22729,-2.02392 -1.64039,-2.0131 -1.51285,0.0684 -1.36964,-0.0922 l -16.88152,2.21548 0.7845,3.62369 z m 0.69545,5.62253 2.37358,5.04322 18.26049,-2.62201 q 2.14491,0.57935 2.32522,-1.57601 0.28435,-2.1635 -1.70093,-2.10797 l -21.25836,1.26277 z m -5.61335,14.43162 -2.24565,-39.31363 24.87767,-1.19701 q 10.72539,-1.33605 12.30581,7.25494 1.56764,8.44261 -3.13484,11.5987 6.41692,2.13783 5.31446,10.58989 -1.1068,8.4026 -10.88728,9.76443 l -26.23017,1.30268 z m -8.32374,-10.55708 q 3.22781,12.90697 -6.30517,13.84409 l -14.80843,2.73314 q -10.45361,1.65616 -12.48933,-10.04899 l -8.93416,-25.72681 13.52334,-3.86794 7.92581,28.43051 14.32414,-2.4956 -3.95789,-25.8035 8.35724,-2.59624 2.36445,25.53134 z m -74.66914,8.75574 15.29403,-4.02683 q 3.1716,-1.35438 2.53136,-3.24458 -0.60493,-1.95182 -2.00099,-1.71585 -1.34599,0.22194 -1.36075,0.17433 l -15.82371,4.95135 1.36006,3.86158 z m 2.39187,5.43509 2.85675,4.47701 17.27829,-5.87635 q 2.21504,-0.0514 2.01645,-2.27244 -0.13378,-2.18733 -2.16595,-1.72139 l -19.98554,5.39317 z m -3.09893,15.45904 -10.94871,-37.08232 24.89787,-6.92486 q 10.14828,-3.77498 13.23095,4.41574 3.15331,8.06743 -0.47638,11.98194 6.59551,0.73888 7.1364,9.33138 0.5762,8.53086 -8.22343,11.56574 l -25.6167,6.71238 z" />
    <path
       inkscape:connector-curvature="0"
       style="font-style:normal;font-variant:normal;font-weight:normal;font-stretch:normal;font-size:180.00001526px;line-height:125%;font-family:Baveuse;-inkscape-font-specification:Baveuse;letter-spacing:0px;word-spacing:0px;fill:#ffffff;fill-opacity:1;stroke:none;stroke-width:1px;stroke-linecap:butt;stroke-linejoin:miter;stroke-opacity:1"
       d="m 839.74559,343.97097 c -0.65924,11.62911 -1.31846,23.25823 -1.97772,34.88736 0.052,0.002 0.10385,0.004 0.15575,0.006 0.60727,-10.71203 1.21473,-21.42404 1.82197,-32.13606 l 14.36677,0.78677 c 4.9734,0.81 10.44206,-0.5736 15.02087,1.89721 1.56305,1.26133 2.2375,3.04518 2.43534,4.94198 0.25176,-2.82798 -0.12372,-5.83378 -2.43534,-7.6992 -4.57881,-2.47081 -10.04747,-1.08721 -15.02087,-1.89719 l -14.36677,-0.78678 z m -21.57928,1.7378 c -0.15421,-8.3e-4 -0.30862,10e-4 -0.46271,0.005 -8.29344,0.49492 -16.59569,0.83784 -24.89417,1.24828 0.0523,0.91655 0.10453,1.83311 0.15687,2.74966 8.24623,-0.40701 16.49611,-0.74893 24.7373,-1.24074 0.6164,-0.0153 1.23465,0.004 1.84687,0.0765 3.64967,0.0626 5.84104,3.63963 5.96996,6.78694 0.0381,0.18916 0.0677,0.38321 0.0946,0.57838 0.15381,-1.13178 0.1168,-2.28541 -0.0946,-3.33559 -0.12892,-3.14732 -2.32029,-6.72431 -5.96996,-6.78694 -0.45917,-0.0541 -0.92154,-0.0789 -1.38416,-0.0814 z m 67.0871,0.12817 -4.27201,36.65853 0.31886,0.0215 3.95315,-33.92286 8.82045,1.35599 c 0.24461,-0.88139 0.48938,-1.76274 0.734,-2.64412 l -9.55445,-1.46908 z m -105.36202,5.19778 c -1.24088,0.38603 -2.47842,0.83786 -3.7453,1.19334 0.13486,0.87887 0.26952,1.75775 0.40437,2.6366 1.12613,-0.33423 2.23276,-0.72798 3.34093,-1.07274 0.54884,5.11091 0.89112,10.66162 1.43572,15.93475 0.0757,3.82589 1.08906,7.57611 1.37965,11.35896 0.1054,-0.54161 0.13312,-1.10104 0.0651,-1.65864 -0.14778,-4.15677 -1.36175,-8.26158 -1.44477,-12.45753 -0.5446,-5.27314 -0.88688,-10.82384 -1.43572,-15.93474 z m 149.93765,2.10021 c -0.24575,-0.002 -0.49139,-9e-5 -0.7374,0.007 -4.77293,0.22619 -7.87948,4.81161 -8.17252,9.01157 -0.95222,5.50931 -1.48841,11.08841 -2.68621,16.55458 -0.0614,0.70278 -0.006,1.39593 0.14667,2.06413 1.09558,-5.24427 1.62752,-10.5847 2.53954,-15.8615 0.29304,-4.19996 3.39959,-8.78538 8.17252,-9.01156 1.96808,-0.0567 3.92993,0.19693 5.85556,0.56383 4.51765,1.28892 9.41103,1.27873 13.65767,3.3415 3.05427,1.32164 4.82581,4.24862 5.22975,7.32385 0.0165,-0.15061 0.0352,-0.30223 0.0487,-0.45074 0.35775,-3.82203 -1.46211,-7.97892 -5.27843,-9.63032 -4.24664,-2.06277 -9.14002,-2.05259 -13.65767,-3.3415 -1.68493,-0.32104 -3.39783,-0.55526 -5.11816,-0.57084 z m -176.18257,0.19764 -8.95352,2.56065 c 0.29326,0.83507 0.58531,1.67099 0.87841,2.50627 l 8.07511,-2.30971 c 2.62074,9.39928 5.24127,18.79863 7.86215,28.19788 6.21175,-1.08266 12.42362,-2.16474 18.63537,-3.24727 -0.13743,-0.89519 -0.27489,-1.79038 -0.41232,-2.68558 -6.07433,1.05855 -12.14873,2.11694 -18.22305,3.17564 -2.62088,-9.39926 -5.24141,-18.7986 -7.86215,-28.19788 z m 86.2056,5.1213 c -0.092,0.002 -0.18388,0.005 -0.2758,0.007 0.21463,2.13898 0.42893,4.27799 0.64337,6.41697 7.37294,0.51933 14.83105,0.3558 22.19605,1.06574 0.31911,-0.22994 0.61517,-0.4957 0.87446,-0.81479 1.46766,0.37843 3.14211,1.47988 4.70754,2.11476 2.08622,0.64419 3.25293,2.45492 3.61053,4.41585 0.006,-0.0737 0.0174,-0.14697 0.0214,-0.22079 0.46144,-2.72131 -0.6471,-6.03058 -3.63204,-6.95226 -0.2553,-0.10355 -0.51389,-0.222 -0.77363,-0.3452 -1.1727,0.55495 -2.49053,0.85181 -3.8195,0.8304 0.46535,-0.67481 0.74238,-1.46997 0.8161,-2.27954 -0.31665,-0.12866 -0.62864,-0.24258 -0.9305,-0.32042 -1.75347,2.15789 -5.03842,2.1156 -7.64299,2.05767 -5.07618,-0.52409 -10.1833,-0.4659 -15.27577,-0.79701 -0.17305,-1.72631 -0.34619,-3.45261 -0.51933,-5.17892 z m -111.15189,1.81643 c -5.64858,0.65722 -10.84539,3.06483 -16.37505,4.23005 l -11.50664,3.19988 0.75212,2.54826 10.75452,-2.99093 c 5.52966,-1.16522 10.72647,-3.57283 16.37505,-4.23005 1.07834,-0.0362 2.15917,0.31362 2.99546,0.96018 2.21746,1.92353 3.00182,4.80468 3.42646,7.55055 0.12105,-0.54526 0.17756,-1.1086 0.15235,-1.68448 -0.39399,-3.04449 -1.07029,-6.44728 -3.57881,-8.62328 -0.83629,-0.64655 -1.91712,-0.99644 -2.99546,-0.96018 z m 135.33472,0.62737 c -0.14102,0.46698 -0.352,0.91357 -0.63035,1.31721 0.27936,0.004 0.5576,-0.0101 0.83481,-0.0328 -0.007,-0.43565 -0.0734,-0.8693 -0.20446,-1.28437 z m -69.47884,0.42866 c -0.19351,0.0254 -0.38703,0.0505 -0.58053,0.076 0.45514,2.10442 0.91098,4.20872 1.36662,6.31304 7.43986,-0.44093 14.87948,-0.88795 22.32009,-1.3156 1.15784,-1.21157 1.61221,-3.03458 1.09252,-4.62641 -0.46742,1.50869 -1.67704,2.79759 -3.39758,3.13796 -3.97679,1.31634 -8.2417,0.50765 -12.31938,1.12065 -2.4581,0.13775 -4.91584,0.27594 -7.37396,0.41358 -0.36951,-1.70633 -0.73853,-3.41277 -1.10778,-5.11915 z m 27.62175,2.84014 c -0.36264,0.1906 -0.75361,0.3496 -1.17801,0.4669 -0.50094,1.24163 0.65988,2.32069 1.88141,2.49495 2.76727,0.39921 4.33856,2.78909 4.69001,5.26994 0.0243,-0.29156 0.0397,-0.58396 0.034,-0.87671 0.34321,-3.01608 -1.25243,-6.64962 -4.72401,-7.15044 -0.24123,-0.0344 -0.47924,-0.10536 -0.70339,-0.20464 z m 17.12774,3.42822 c 1.12049,3.29301 2.24022,6.58627 3.35961,9.87964 2.14497,-0.0859 4.28997,-0.17091 6.43493,-0.25635 4.91982,0.0756 9.80328,-0.80108 14.7077,-0.3371 2.94902,-0.0101 4.49806,-3.31104 3.69378,-5.72498 -0.49191,1.60697 -1.80683,2.96128 -3.69378,2.96777 -4.90442,-0.46398 -9.78788,0.41268 -14.7077,0.33711 -2.14496,0.0855 -4.28996,0.17047 -6.43493,0.25634 -0.80204,-2.3597 -1.60446,-4.71928 -2.40702,-7.07882 -0.039,-0.003 -0.0782,-0.005 -0.11723,-0.007 -0.27846,-0.012 -0.55693,-0.0241 -0.83536,-0.0361 z m -43.30189,2.83851 c -0.42061,0.025 -0.84123,0.0499 -1.26184,0.0749 1.48655,3.15955 2.97351,6.3189 4.46006,9.47845 5.75413,-0.87593 11.55629,-1.55933 17.28122,-2.55257 2.13291,-0.30143 4.97975,0.30282 6.3511,-1.77173 0.80453,-1.07347 0.95007,-2.54859 0.55391,-3.83532 -0.12635,0.38532 -0.30862,0.75083 -0.55391,1.07812 -1.37135,2.07454 -4.21819,1.4703 -6.3511,1.77172 -5.72493,0.99324 -11.52709,1.67664 -17.28122,2.55257 -1.06589,-2.26545 -2.13221,-4.5307 -3.19822,-6.7961 z m 125.03553,1.06627 c -0.17268,0.93193 -0.23084,1.86756 -0.18009,2.71952 1.31639,0.27321 2.63119,0.55245 3.94637,0.83093 0.0651,-0.24888 0.13338,-0.49452 0.20785,-0.7313 0.94807,-1.23721 2.79944,0.0335 4.04433,0.17878 4.54776,1.28098 9.29063,3.32334 14.0768,3.3119 1.86987,-1.13583 2.72894,-3.72065 2.15384,-5.81977 -0.49571,1.93772 -1.99455,3.61544 -4.19387,3.64576 -3.09657,-0.20521 -6.04358,-1.34855 -9.10699,-1.81535 -3.64874,-0.77663 -7.29546,-1.56145 -10.94824,-2.32047 z m -191.4266,5.59467 c -0.27685,0.88581 -0.84272,1.67238 -1.74211,2.18153 -3.90317,2.37781 -8.70209,2.48317 -12.95766,4.00389 -2.2651,0.59621 -4.53001,1.19284 -6.79515,1.78895 -0.64216,-1.82458 -1.28486,-3.64899 -1.9273,-5.4735 -0.29517,0.0808 -0.59027,0.16251 -0.88634,0.2391 0.93802,2.66382 1.87606,5.32764 2.81364,7.99161 0.33814,-0.089 0.67622,-0.17811 1.01435,-0.2671 -0.23283,-0.36491 -0.4655,-0.7299 -0.69831,-1.09482 6.91432,-1.67857 13.69999,-3.84457 20.62045,-5.49018 0.79212,-1.09628 0.93994,-2.56452 0.55843,-3.87948 z m 3.74644,0.52559 c -0.93002,1.02384 -2.13504,1.83583 -3.48196,2.3237 0.8036,0.10507 1.60778,0.20649 2.41211,0.30534 0.16903,-0.0354 0.33765,-0.0726 0.50689,-0.10717 0.53409,0.018 1.01478,0.14042 1.44194,0.33982 0.19888,0.0233 0.39746,0.048 0.59638,0.0711 2.96665,-0.0955 4.96856,2.57729 5.37924,5.14015 0.10598,0.42035 0.18345,0.8513 0.23901,1.28652 0.1738,-1.35234 0.0887,-2.74386 -0.23901,-4.04374 -0.41068,-2.56285 -2.41259,-5.23566 -5.37924,-5.14014 -0.49209,-0.057 -0.98353,-0.11665 -1.47536,-0.17556 z m 153.45923,1.23213 c -0.25389,0.91495 -0.50786,1.82988 -0.76173,2.74482 l 21.64101,0.34681 c 0.19501,-0.91603 0.39007,-1.83204 0.58505,-2.74806 l -21.46433,-0.34357 z m 37.65647,0.60582 c -0.32501,2.41345 0.0535,4.97779 2.22236,6.46275 5.80285,1.76083 12.00713,2.28451 17.97388,3.39268 0.062,-5.6e-4 0.11877,0.002 0.17386,0.005 0.56291,-1.2719 1.54113,-2.77996 -0.17386,-2.76204 -5.96675,-1.10817 -12.17103,-1.63186 -17.97388,-3.39268 -1.34186,-0.91868 -1.99343,-2.25194 -2.22236,-3.70553 z m -188.1429,6.33999 c -0.18258,0.58736 -0.4889,1.13268 -0.93109,1.58109 -1.53618,1.48522 -4.03224,1.2906 -5.89803,2.24238 -5.17189,1.89211 -10.42703,3.56172 -15.63539,5.35933 -1.30457,-2.04576 -2.61004,-4.091 -3.91521,-6.13642 -0.50544,0.12789 -1.01168,0.25396 -1.5184,0.37697 1.81125,2.83885 3.62302,5.67741 5.43361,8.51666 5.20836,-1.79761 10.4635,-3.46722 15.63539,-5.35933 1.86579,-0.95178 4.36185,-0.75716 5.89803,-2.24239 1.10798,-1.12358 1.3727,-2.85177 0.93109,-4.33829 z m 111.40788,14.26479 -20.44261,1.5854 c -5.15832,0.26272 -9.35691,4.64847 -9.67563,9.46392 -0.25035,1.28072 -0.34498,2.71358 -0.19822,4.1132 0.0466,-0.46465 0.11289,-0.91947 0.19822,-1.356 0.31872,-4.81544 4.51731,-9.20119 9.67563,-9.46391 l 20.42506,-1.58378 c 0.006,-0.91961 0.0116,-1.83922 0.0177,-2.75883 z m 11.50551,1.55255 0.15917,2.75828 28.62078,0.23534 c 0.12514,-0.91799 0.25035,-1.83598 0.37551,-2.75399 l -29.15546,-0.23963 z m -63.17358,3.13524 c -0.16184,-10e-4 -0.32359,0.001 -0.48539,0.009 -7.23028,0.59412 -14.26885,2.36979 -21.44789,3.30596 0.14002,0.90026 0.25578,1.80315 0.36246,2.70714 7.05351,-0.94766 13.977,-2.67177 21.08543,-3.2559 2.58875,-0.11544 5.20646,0.8689 6.98205,2.66945 3.96822,4.44794 3.72258,10.69503 4.19384,16.20561 0.46527,3.47993 0.60339,6.98575 1.00529,10.48334 0.12486,0.0118 0.25167,0.0193 0.3823,0.0194 -0.74143,-4.41497 -0.79914,-8.85845 -1.38759,-13.25993 -0.47126,-5.51059 -0.22562,-11.75768 -4.19384,-16.20562 -1.66462,-1.68801 -4.06953,-2.65844 -6.49666,-2.67805 z m 112.21095,1.13036 c -4.60096,0.0832 -8.1427,4.21875 -8.29372,8.42672 -0.82577,5.70499 -0.5436,11.50567 -1.5552,17.21159 -0.0448,0.6598 0.003,1.32317 0.12855,1.97205 0.85696,-5.45239 0.63873,-10.98281 1.42665,-16.42642 0.15102,-4.20797 3.69276,-8.34363 8.29372,-8.42674 1.39562,-0.0221 2.79033,0.074 4.17687,0.21811 4.95892,0.95568 10.1924,0.59242 14.88668,2.58435 3.31368,1.27513 5.33021,4.53832 5.61767,7.8516 0.052,-0.7615 0.0619,-1.51596 0.0346,-2.24132 -0.11198,-3.48514 -2.16663,-7.02622 -5.65223,-8.36749 -4.69428,-1.99193 -9.92776,-1.62867 -14.88668,-2.58435 -1.38654,-0.14419 -2.78125,-0.24029 -4.17687,-0.2181 z m -60.62839,4.87521 c -0.0417,0.74226 -0.0325,1.48593 -0.013,2.22838 0.006,2.3e-4 0.0122,8.3e-4 0.018,0.001 0.0342,-0.7391 0.0154,-1.48361 -0.005,-2.22946 z m 99.02562,0.40065 -7.10605,34.9272 c 0.18115,0.0264 0.36116,0.0606 0.54086,0.0986 l 3.77817,-18.56863 c 0.0628,-0.72159 0.15887,-1.42826 0.42081,-2.06953 l 2.36621,-11.63038 9.57312,2.60158 c 5.9412,2.00489 12.31286,2.75379 18.05939,5.28071 3.03746,1.03793 4.83619,3.77615 5.26825,6.71155 0.56917,-3.82056 -1.28368,-8.10718 -5.26825,-9.46876 -5.74653,-2.52692 -12.11819,-3.27583 -18.05939,-5.28071 l -9.57312,-2.60158 z m -203.11109,0.78569 -9.52101,1.65703 0.65414,2.64359 8.86687,-1.5434 c 0.95134,10.83391 1.90378,21.66774 2.85443,32.50172 7.02372,-2.24593 14.04712,-4.49276 21.0707,-6.73902 l 0.36871,2.45888 0.39815,-0.10502 -0.76686,-5.11107 c -7.02358,2.24626 -14.04698,4.49309 -21.0707,6.73901 -0.95065,-10.83398 -1.90309,-21.66779 -2.85443,-32.50172 z m 126.50071,2.50358 c -0.11567,7.67046 -0.2584,15.366 -0.33643,23.00117 0.0113,-5.5e-4 0.0226,-1.3e-4 0.034,-5.5e-4 0.0929,-7.64583 0.23848,-15.34091 0.34548,-23.0001 -0.0142,-2.1e-4 -0.0287,-2.8e-4 -0.0431,-5.5e-4 z m -46.91865,4.00442 c -0.32138,1.23357 -0.23047,2.56721 0.36928,3.6743 4.08931,0.9176 8.46827,0.11144 12.64558,0.46151 2.60234,-0.0312 6.03546,-0.43684 7.97714,1.52563 0.36693,0.0862 0.7327,0.1855 1.09647,0.30425 2.32791,0.75766 3.3294,2.89467 3.60314,5.11215 0.33591,-2.9215 -0.29033,-6.79114 -3.60314,-7.86935 -4.77512,-1.5589 -9.84117,-0.13971 -14.73887,-0.20841 -2.39997,0.39764 -5.78202,0.46268 -6.95257,-2.02914 -0.17233,-0.30756 -0.30255,-0.63416 -0.39703,-0.97094 z m -105.31671,0.84547 c -5.32966,0.49915 -10.0593,3.1535 -15.21572,4.33938 l -12.75603,4.01627 0.83707,2.49387 11.91896,-3.75294 c 5.15642,-1.18587 9.88606,-3.84023 15.21572,-4.33937 2.89064,-0.0383 4.4654,2.59273 5.38832,4.84074 0.45615,1.10627 0.82449,2.33571 0.99678,3.57845 0.33823,-2.09941 -0.20031,-4.40405 -0.99678,-6.33566 -0.92292,-2.24802 -2.49768,-4.8791 -5.38832,-4.84074 z m 86.98153,2.42818 c -0.0148,0.068 -0.029,0.13619 -0.0459,0.20356 -0.14782,1.32759 -0.6097,2.73278 -0.19371,4.01357 0.0712,-0.42221 0.14769,-0.84316 0.19371,-1.25637 0.23946,-0.95034 0.24628,-1.97335 0.0459,-2.96076 z m -6.65698,0.19117 c -0.0705,0.002 -0.14208,0.007 -0.21521,0.0151 -7.00061,1.03345 -14.70561,-0.13554 -20.88437,3.74486 -2.18027,1.62732 -2.8221,4.20989 -2.40757,6.70401 0.27421,-1.52036 1.03569,-2.92285 2.40757,-3.94681 1.65757,-1.04097 3.4256,-1.71655 5.25974,-2.17076 0.59077,-0.81009 1.44573,-1.42622 2.56787,-1.67372 2.5291,-0.54065 5.16047,-0.2333 7.70981,-0.65752 2.65335,-0.20554 5.29496,-0.60342 7.9624,-0.60529 -0.57305,-0.79837 -1.34249,-1.44035 -2.40024,-1.40984 z m 126.63495,2.13899 c -0.46257,1.78852 -1.80894,3.32691 -3.85634,3.51329 -2.7683,0.11529 -5.41577,-0.93226 -8.17704,-1.00649 -4.08441,-0.57002 -8.16875,-1.13955 -12.2531,-1.70979 -0.016,-0.0983 -0.0261,-0.20035 -0.0391,-0.30049 -0.13554,1.0406 -0.11605,2.0948 0.0391,3.0577 1.39226,0.19439 2.78457,0.38839 4.17688,0.58268 0.0598,-0.34002 0.12811,-0.67403 0.20557,-0.99464 1.44966,-1.00878 3.28467,0.22131 4.85312,0.29564 4.23356,0.94282 8.74278,2.38204 13.1202,2.15623 1.74136,-1.16328 2.4783,-3.57704 1.93071,-5.59413 z m -79.51581,4.82136 c -0.48391,1.91204 -1.95245,3.55931 -4.16215,3.68884 -7.15487,-0.23773 -14.30585,-0.56758 -21.45866,-0.85355 -0.0235,1.7671 -0.45449,3.91399 -0.22882,5.44873 0.0107,-5.6e-4 0.0214,-5.6e-4 0.0323,-0.001 0.0813,-0.91139 0.18526,-1.84432 0.19652,-2.69045 7.15281,0.28596 14.30379,0.61581 21.45866,0.85355 3.25459,-0.19078 4.90504,-3.67285 4.16215,-6.44605 z m -42.49315,1.23535 c -0.0258,-0.003 -0.062,0.007 -0.111,0.0345 -0.0325,0.61231 0.29181,-0.0153 0.111,-0.0345 z m 2.35776,0.0528 c -0.22801,0.90644 -0.72798,1.71231 -1.62998,2.2133 0.19017,0.68838 0.47417,1.40625 0.85804,2.06305 0.98458,-1.12276 1.07351,-2.8215 0.77194,-4.27635 z m -23.64366,0.66076 c -0.53831,2.22779 0.26463,4.86534 2.42343,5.96246 2.46936,0.71651 5.19367,0.13917 7.73417,-0.0275 3.28053,-0.53233 6.55063,-0.58233 9.81664,-0.97526 0.37682,-0.9782 0.57295,-1.99262 0.62129,-2.83152 -3.47247,0.46832 -6.94943,0.48349 -10.43793,1.04956 -2.5405,0.16665 -5.26481,0.74398 -7.73417,0.0275 -1.29125,-0.65623 -2.09843,-1.8639 -2.42343,-3.20525 z m 162.30232,0.67636 c -0.0765,0.90067 -0.20179,1.78758 -0.62695,2.56766 2.48439,0.75059 4.96883,1.50104 7.45324,2.25155 1.30543,0.20399 2.61081,0.40825 3.91636,0.61175 0.0551,0.20715 0.11022,0.4143 0.16537,0.62146 1.8231,0.55072 3.6462,1.10141 5.46929,1.65216 1.92395,0.35636 3.76372,1.13229 5.6296,1.76258 2.46138,0.41977 4.93219,0.46361 7.31616,-0.51805 0.78736,-0.39871 1.4544,-0.90658 2.02927,-1.49171 0.39005,-1.03013 0.45592,-2.18944 0.1529,-3.23272 -0.48463,1.76837 -1.87642,3.28029 -3.95542,3.39482 -3.9536,0.33958 -7.40162,-1.9737 -11.17251,-2.67213 -5.45911,-1.64917 -10.91822,-3.2981 -16.37731,-4.94737 z m -39.24224,0.29242 c -0.31117,2.66126 0.1186,5.58786 2.64262,7.07506 6.0705,1.37436 12.41814,1.46565 18.6167,2.16968 l 0.70962,-2.67589 c -6.42264,-0.78251 -13.0241,-0.82418 -19.32632,-2.25101 -1.65967,-0.97789 -2.40884,-2.57986 -2.64262,-4.31784 z m -185.62259,4.44332 c -0.28075,0.88215 -0.85548,1.66271 -1.77212,2.16323 -3.86599,2.47726 -8.68962,2.74817 -12.91519,4.4336 -2.14907,0.64416 -4.29835,1.28797 -6.4474,1.93222 -0.71325,-1.81032 -1.42654,-3.62061 -2.13969,-5.43096 -0.32287,0.0998 -0.6456,0.19951 -0.97016,0.29403 1.03656,2.63139 2.07311,5.2628 3.10985,7.89414 0.36285,-0.10878 0.72569,-0.21759 1.08854,-0.32636 -0.24109,-0.34948 -0.48214,-0.69899 -0.72323,-1.04848 6.79813,-1.88479 13.4609,-4.28142 20.27837,-6.13965 0.74093,-1.07728 0.86441,-2.49515 0.49103,-3.77177 z m 3.74588,0.25741 c -0.11531,0.12561 -0.23472,0.24951 -0.36417,0.36889 -0.98954,0.57835 -0.7407,1.62283 -0.0283,2.1643 0.0154,-0.004 0.0305,-0.008 0.0459,-0.0113 0.54174,0.008 1.03099,0.12439 1.46686,0.31987 2.12088,-0.13032 4.23451,0.86884 5.13855,2.78413 0.61893,1.19079 1.03126,2.52875 1.20124,3.89511 0.2951,-2.2592 -0.16631,-4.66119 -1.20124,-6.65231 -0.95357,-2.02024 -3.25272,-3.02345 -5.48687,-2.75453 -0.27246,0.0289 -0.535,-0.0173 -0.77193,-0.11416 z m 235.92237,5.5058 c 1.93474,3.56317 3.86936,7.12638 5.80401,10.68959 0.56333,0.11846 1.12666,0.23696 1.69,0.35542 -1.92265,-3.54108 -3.84509,-7.08227 -5.76776,-10.62334 -0.58051,-0.15008 -1.15665,-0.29385 -1.72625,-0.42167 z m -232.63298,2.70984 c -0.20094,0.64343 -0.55208,1.23625 -1.06984,1.70601 -1.58835,1.29092 -3.9027,1.27941 -5.70548,2.23055 -5.01019,2.04693 -10.1888,3.89539 -15.28424,5.83 -1.38487,-2.00735 -2.76947,-4.01485 -4.15422,-6.02226 -0.52959,0.15302 -1.05978,0.30403 -1.59089,0.45127 1.91503,2.77607 3.82994,5.55221 5.74511,8.32819 5.09544,-1.9346 10.27405,-3.78306 15.28424,-5.83 1.80278,-0.95113 4.11713,-0.93961 5.70548,-2.23054 1.22856,-1.11466 1.5286,-2.91638 1.06984,-4.46322 z"
       id="path4255" />
    <path
       id="path4492"
       d="m 839.74559,345.07386 c -0.65924,11.62912 -1.31846,23.25823 -1.97772,34.88734 0.052,0.002 0.10385,0.004 0.15575,0.006 0.60727,-10.71204 1.21473,-21.42403 1.82197,-32.13607 l 14.36677,0.78678 c 4.9734,0.80999 10.44206,-0.57361 15.02087,1.8972 1.56305,1.26133 2.2375,3.04517 2.43534,4.94198 0.25176,-2.82797 -0.12372,-5.83378 -2.43534,-7.69918 -4.57881,-2.47082 -10.04747,-1.08722 -15.02087,-1.89721 l -14.36677,-0.78677 z m -21.57928,1.7378 c -0.15421,-8.3e-4 -0.30862,10e-4 -0.46271,0.005 -8.29344,0.49494 -16.59569,0.83786 -24.89417,1.24829 0.0523,0.91655 0.10453,1.83313 0.15687,2.74967 8.24623,-0.407 16.49611,-0.74893 24.7373,-1.24074 0.6164,-0.0153 1.23465,0.004 1.84687,0.0765 3.64967,0.0626 5.84104,3.63962 5.96996,6.78694 0.0381,0.18916 0.0677,0.38321 0.0946,0.57836 0.15381,-1.13178 0.1168,-2.28538 -0.0946,-3.33558 -0.12892,-3.14731 -2.32029,-6.72431 -5.96996,-6.78694 -0.45917,-0.0541 -0.92154,-0.0789 -1.38416,-0.0814 z m 67.0871,0.12816 -4.27201,36.65853 0.31886,0.0215 3.95315,-33.92286 8.82045,1.35598 c 0.24461,-0.88138 0.48938,-1.76272 0.734,-2.64412 l -9.55445,-1.46907 z m -105.36202,5.19778 c -1.24088,0.38604 -2.47842,0.83787 -3.7453,1.19336 0.13486,0.87885 0.26952,1.75773 0.40437,2.63657 1.12613,-0.3342 2.23276,-0.72796 3.34093,-1.07272 0.54884,5.1109 0.89112,10.66161 1.43572,15.93474 0.0757,3.8259 1.08906,7.57611 1.37965,11.35897 0.1054,-0.54161 0.13312,-1.10104 0.0651,-1.65864 -0.14778,-4.15677 -1.36175,-8.26159 -1.44477,-12.45753 -0.5446,-5.27313 -0.88688,-10.82384 -1.43572,-15.93475 z m 149.93765,2.10022 c -0.24575,-0.002 -0.49139,-9e-5 -0.7374,0.007 -4.77293,0.22618 -7.87948,4.81162 -8.17252,9.01156 -0.95222,5.50933 -1.48841,11.08843 -2.68621,16.55459 -0.0614,0.70278 -0.006,1.39592 0.14667,2.06413 1.09558,-5.24427 1.62752,-10.58469 2.53954,-15.86149 0.29304,-4.19997 3.39959,-8.78539 8.17252,-9.01157 1.96808,-0.0567 3.92993,0.19692 5.85556,0.56384 4.51765,1.2889 9.41103,1.27872 13.65767,3.3415 3.05427,1.32163 4.82581,4.24861 5.22975,7.32384 0.0165,-0.1506 0.0352,-0.30223 0.0487,-0.45074 0.35775,-3.82203 -1.46211,-7.97893 -5.27843,-9.63033 -4.24664,-2.06275 -9.14002,-2.05257 -13.65767,-3.34149 -1.68493,-0.32103 -3.39783,-0.55526 -5.11816,-0.57083 z m -176.18257,0.19764 -8.95352,2.56064 c 0.29326,0.83508 0.58531,1.67099 0.87841,2.50627 l 8.07511,-2.3097 c 2.62074,9.39929 5.24127,18.79862 7.86215,28.19788 6.21175,-1.08266 12.42362,-2.16475 18.63537,-3.24727 -0.13743,-0.89521 -0.27489,-1.79039 -0.41232,-2.6856 -6.07433,1.05857 -12.14873,2.11696 -18.22305,3.17565 -2.62088,-9.39924 -5.24141,-18.79859 -7.86215,-28.19787 z m 86.2056,5.1213 c -0.092,0.003 -0.18388,0.005 -0.2758,0.007 0.21463,2.13898 0.42893,4.27799 0.64337,6.41699 7.37294,0.51932 14.83105,0.35579 22.19605,1.06572 0.31911,-0.22994 0.61517,-0.4957 0.87446,-0.81478 1.46766,0.37842 3.14211,1.47987 4.70754,2.11476 2.08622,0.64418 3.25293,2.45492 3.61053,4.41585 0.006,-0.0737 0.0174,-0.14698 0.0214,-0.22079 0.46144,-2.72131 -0.6471,-6.03058 -3.63204,-6.95227 -0.2553,-0.10354 -0.51389,-0.22199 -0.77363,-0.34518 -1.1727,0.55494 -2.49053,0.85179 -3.8195,0.83038 0.46535,-0.6748 0.74238,-1.46997 0.8161,-2.27954 -0.31665,-0.12866 -0.62864,-0.24257 -0.9305,-0.32042 -1.75347,2.15789 -5.03842,2.11561 -7.64299,2.05767 -5.07618,-0.52408 -10.1833,-0.46589 -15.27577,-0.797 -0.17305,-1.72631 -0.34619,-3.45262 -0.51933,-5.17893 z m -111.15189,1.81642 c -5.64858,0.65723 -10.84539,3.06483 -16.37505,4.23006 l -11.50664,3.19987 0.75212,2.54827 10.75452,-2.99094 c 5.52966,-1.16521 10.72647,-3.57283 16.37505,-4.23004 1.07834,-0.0362 2.15917,0.31363 2.99546,0.96018 2.21746,1.92352 3.00182,4.80467 3.42646,7.55055 0.12105,-0.54526 0.17756,-1.10861 0.15235,-1.68448 -0.39399,-3.04449 -1.07029,-6.44729 -3.57881,-8.6233 -0.83629,-0.64654 -1.91712,-0.99642 -2.99546,-0.96017 z m 135.33472,0.62738 c -0.14102,0.46699 -0.352,0.91358 -0.63035,1.31721 0.27936,0.004 0.5576,-0.0101 0.83481,-0.0328 -0.007,-0.43563 -0.0734,-0.8693 -0.20446,-1.28435 z m -69.47884,0.42865 c -0.19351,0.0254 -0.38703,0.0505 -0.58053,0.076 0.45514,2.10442 0.91098,4.20872 1.36662,6.31305 7.43986,-0.44096 14.87948,-0.88795 22.32009,-1.3156 1.15784,-1.21158 1.61221,-3.0346 1.09252,-4.62641 -0.46742,1.50868 -1.67704,2.79757 -3.39758,3.13794 -3.97679,1.31635 -8.2417,0.50765 -12.31938,1.12065 -2.4581,0.13776 -4.91584,0.27594 -7.37396,0.41358 -0.36951,-1.70633 -0.73853,-3.41277 -1.10778,-5.11915 z m 27.62175,2.84015 c -0.36264,0.1906 -0.75361,0.34961 -1.17801,0.46689 -0.50094,1.24164 0.65988,2.3207 1.88141,2.49496 2.76727,0.39921 4.33856,2.78907 4.69001,5.26994 0.0243,-0.29155 0.0397,-0.58396 0.034,-0.87671 0.34321,-3.0161 -1.25243,-6.64963 -4.72401,-7.15045 -0.24123,-0.0344 -0.47924,-0.10536 -0.70339,-0.20463 z m 17.12774,3.4282 c 1.12049,3.29303 2.24022,6.58629 3.35961,9.87966 2.14497,-0.0859 4.28997,-0.1709 6.43493,-0.25634 4.91982,0.0756 9.80328,-0.80109 14.7077,-0.33712 2.94902,-0.0101 4.49806,-3.31105 3.69378,-5.72498 -0.49191,1.60698 -1.80683,2.96129 -3.69378,2.96778 -4.90442,-0.46398 -9.78788,0.41268 -14.7077,0.3371 -2.14496,0.0855 -4.28996,0.17048 -6.43493,0.25634 -0.80204,-2.3597 -1.60446,-4.71928 -2.40702,-7.07882 -0.039,-0.003 -0.0782,-0.005 -0.11723,-0.007 -0.27846,-0.012 -0.55693,-0.0241 -0.83536,-0.0361 z m -43.30189,2.83853 c -0.42061,0.025 -0.84123,0.0499 -1.26184,0.0749 1.48655,3.15953 2.97351,6.3189 4.46006,9.47844 5.75413,-0.87594 11.55629,-1.55932 17.28122,-2.55256 2.13291,-0.30143 4.97975,0.30282 6.3511,-1.77172 0.80453,-1.07348 0.95007,-2.54861 0.55391,-3.83533 -0.12635,0.3853 -0.30862,0.75084 -0.55391,1.07811 -1.37135,2.07455 -4.21819,1.4703 -6.3511,1.77173 -5.72493,0.99324 -11.52709,1.67663 -17.28122,2.55257 -1.06589,-2.26545 -2.13221,-4.53071 -3.19822,-6.7961 z m 125.03553,1.06627 c -0.17268,0.93192 -0.23084,1.86756 -0.18009,2.71951 1.31639,0.27321 2.63119,0.55245 3.94637,0.83093 0.0651,-0.24889 0.13338,-0.49452 0.20785,-0.7313 0.94807,-1.23719 2.79944,0.0336 4.04433,0.17879 4.54776,1.28097 9.29063,3.32333 14.0768,3.31188 1.86987,-1.13582 2.72894,-3.72064 2.15384,-5.81977 -0.49571,1.93774 -1.99455,3.61547 -4.19387,3.64577 -3.09657,-0.2052 -6.04358,-1.34855 -9.10699,-1.81535 -3.64874,-0.77663 -7.29546,-1.56144 -10.94824,-2.32046 z m -191.4266,5.59465 c -0.27685,0.88583 -0.84272,1.67239 -1.74211,2.18154 -3.90317,2.37781 -8.70209,2.48317 -12.95766,4.00388 -2.2651,0.59622 -4.53001,1.19285 -6.79515,1.78896 -0.64216,-1.82458 -1.28486,-3.64899 -1.9273,-5.47349 -0.29517,0.0808 -0.59027,0.16252 -0.88634,0.23909 0.93802,2.66383 1.87606,5.32766 2.81364,7.99161 0.33814,-0.089 0.67622,-0.1781 1.01435,-0.2671 -0.23283,-0.36491 -0.4655,-0.7299 -0.69831,-1.09481 6.91432,-1.67857 13.69999,-3.84458 20.62045,-5.49018 0.79212,-1.09629 0.93994,-2.56454 0.55843,-3.8795 z m 3.74644,0.5256 c -0.93002,1.02385 -2.13504,1.83584 -3.48196,2.32371 0.8036,0.10507 1.60778,0.20648 2.41211,0.30533 0.16903,-0.0354 0.33765,-0.0727 0.50689,-0.10716 0.53409,0.018 1.01478,0.14042 1.44194,0.3398 0.19888,0.0233 0.39746,0.048 0.59638,0.0712 2.96665,-0.0955 4.96856,2.57729 5.37924,5.14014 0.10598,0.42036 0.18345,0.8513 0.23901,1.28652 0.1738,-1.35234 0.0887,-2.74384 -0.23901,-4.04372 -0.41068,-2.56286 -2.41259,-5.23568 -5.37924,-5.14017 -0.49209,-0.057 -0.98353,-0.11664 -1.47536,-0.17555 z m 153.45923,1.23213 c -0.25389,0.91495 -0.50786,1.82988 -0.76173,2.74483 l 21.64101,0.34681 c 0.19501,-0.91603 0.39007,-1.83204 0.58505,-2.74806 l -21.46433,-0.34358 z m 37.65647,0.60583 c -0.32501,2.41345 0.0535,4.97779 2.22236,6.46276 5.80285,1.76082 12.00713,2.28449 17.97388,3.39266 0.062,-5.5e-4 0.11877,0.002 0.17386,0.005 0.56291,-1.27191 1.54113,-2.77999 -0.17386,-2.76206 -5.96675,-1.10818 -12.17103,-1.63184 -17.97388,-3.39267 -1.34186,-0.91869 -1.99343,-2.25193 -2.22236,-3.70554 z m -188.1429,6.33997 c -0.18258,0.58736 -0.4889,1.13268 -0.93109,1.58109 -1.53618,1.48524 -4.03224,1.29061 -5.89803,2.24239 -5.17189,1.89211 -10.42703,3.56172 -15.63539,5.35933 -1.30457,-2.04574 -2.61004,-4.09099 -3.91521,-6.13641 -0.50544,0.12787 -1.01168,0.25395 -1.5184,0.37696 1.81125,2.83886 3.62302,5.67743 5.43361,8.51667 5.20836,-1.79763 10.4635,-3.46722 15.63539,-5.35933 1.86579,-0.95178 4.36185,-0.75716 5.89803,-2.24239 1.10798,-1.12358 1.3727,-2.85177 0.93109,-4.33831 z m 111.40788,14.26481 -20.44261,1.58539 c -5.15832,0.26272 -9.35691,4.64848 -9.67563,9.46392 -0.25035,1.28072 -0.34498,2.71359 -0.19822,4.1132 0.0466,-0.46464 0.11289,-0.91947 0.19822,-1.35599 0.31872,-4.81544 4.51731,-9.20119 9.67563,-9.46392 l 20.42506,-1.58378 c 0.006,-0.91961 0.0116,-1.8392 0.0177,-2.75882 z m 11.50551,1.55254 0.15917,2.75829 28.62078,0.23534 c 0.12514,-0.91801 0.25035,-1.83598 0.37551,-2.75399 l -29.15546,-0.23964 z m -63.17358,3.13526 c -0.16184,-0.001 -0.32359,10e-4 -0.48539,0.009 -7.23028,0.59413 -14.26885,2.3698 -21.44789,3.30597 0.14002,0.90026 0.25578,1.80314 0.36246,2.70713 7.05351,-0.94765 13.977,-2.67177 21.08543,-3.25588 2.58875,-0.11546 5.20646,0.86888 6.98205,2.66943 3.96822,4.44795 3.72258,10.69503 4.19384,16.20562 0.46527,3.47992 0.60339,6.98574 1.00529,10.48333 0.12486,0.0118 0.25167,0.0193 0.3823,0.0194 -0.74143,-4.41497 -0.79914,-8.85845 -1.38759,-13.25993 -0.47126,-5.51058 -0.22562,-11.75766 -4.19384,-16.20561 -1.66462,-1.68801 -4.06953,-2.65845 -6.49666,-2.67806 z m 112.21095,1.13034 c -4.60096,0.0832 -8.1427,4.21876 -8.29372,8.42673 -0.82577,5.70499 -0.5436,11.50566 -1.5552,17.21158 -0.0448,0.65981 0.003,1.32318 0.12855,1.97204 0.85696,-5.45237 0.63873,-10.98281 1.42665,-16.42641 0.15102,-4.20797 3.69276,-8.34363 8.29372,-8.42672 1.39562,-0.0222 2.79033,0.074 4.17687,0.2181 4.95892,0.95568 10.1924,0.59242 14.88668,2.58433 3.31368,1.27513 5.33021,4.53834 5.61767,7.85161 0.052,-0.7615 0.0619,-1.51595 0.0346,-2.24133 -0.11198,-3.48512 -2.16663,-7.0262 -5.65223,-8.36748 -4.69428,-1.99192 -9.92776,-1.62866 -14.88668,-2.58434 -1.38654,-0.1442 -2.78125,-0.2403 -4.17687,-0.21811 z m -60.62839,4.8752 c -0.0417,0.74227 -0.0325,1.48594 -0.013,2.2284 0.006,2.2e-4 0.0122,8.2e-4 0.018,0.001 0.0342,-0.7391 0.0154,-1.48361 -0.005,-2.22948 z m 99.02562,0.40067 -7.10605,34.92719 c 0.18115,0.0264 0.36116,0.0606 0.54086,0.0985 l 3.77817,-18.56864 c 0.0628,-0.72158 0.15887,-1.42824 0.42081,-2.06953 l 2.36621,-11.63036 9.57312,2.60157 c 5.9412,2.00488 12.31286,2.7538 18.05939,5.28071 3.03746,1.03794 4.83619,3.77614 5.26825,6.71155 0.56917,-3.82056 -1.28368,-8.10718 -5.26825,-9.46876 -5.74653,-2.52692 -12.11819,-3.27582 -18.05939,-5.28071 l -9.57312,-2.60158 z m -203.11109,0.78569 -9.52101,1.65702 0.65414,2.64359 8.86687,-1.5434 c 0.95134,10.83392 1.90378,21.66774 2.85443,32.50171 7.02372,-2.24592 14.04712,-4.49274 21.0707,-6.73901 l 0.36871,2.45888 0.39815,-0.10502 -0.76686,-5.11106 c -7.02358,2.24625 -14.04698,4.49308 -21.0707,6.739 -0.95065,-10.83396 -1.90309,-21.66779 -2.85443,-32.50171 z m 126.50071,2.50357 c -0.11567,7.67045 -0.2584,15.36601 -0.33643,23.00118 0.0113,-5.5e-4 0.0226,-1.4e-4 0.034,-5.5e-4 0.0929,-7.64583 0.23848,-15.34091 0.34548,-23.0001 -0.0142,-2.1e-4 -0.0287,-2.8e-4 -0.0431,-5.6e-4 z m -46.91865,4.00442 c -0.32138,1.23357 -0.23047,2.56721 0.36928,3.67431 4.08931,0.91759 8.46827,0.11143 12.64558,0.46151 2.60234,-0.0312 6.03546,-0.43685 7.97714,1.52562 0.36693,0.0862 0.7327,0.1855 1.09647,0.30427 2.32791,0.75766 3.3294,2.89466 3.60314,5.11214 0.33591,-2.92151 -0.29033,-6.79114 -3.60314,-7.86936 -4.77512,-1.55889 -9.84117,-0.1397 -14.73887,-0.2084 -2.39997,0.39764 -5.78202,0.46268 -6.95257,-2.02913 -0.17233,-0.30758 -0.30255,-0.63418 -0.39703,-0.97096 z m -105.31671,0.84548 c -5.32966,0.49914 -10.0593,3.15349 -15.21572,4.33937 l -12.75603,4.01627 0.83707,2.49387 11.91896,-3.75292 c 5.15642,-1.18588 9.88606,-3.84023 15.21572,-4.33938 2.89064,-0.0383 4.4654,2.59272 5.38832,4.84074 0.45615,1.10626 0.82449,2.3357 0.99678,3.57845 0.33823,-2.0994 -0.20031,-4.40404 -0.99678,-6.33567 -0.92292,-2.248 -2.49768,-4.8791 -5.38832,-4.84073 z m 86.98153,2.42817 c -0.0148,0.0681 -0.029,0.13619 -0.0459,0.20356 -0.14782,1.32761 -0.6097,2.73279 -0.19371,4.01357 0.0712,-0.42221 0.14769,-0.84316 0.19371,-1.25635 0.23946,-0.95034 0.24628,-1.97336 0.0459,-2.96078 z m -6.65698,0.19118 c -0.0705,0.002 -0.14208,0.007 -0.21521,0.0151 -7.00061,1.03345 -14.70561,-0.13555 -20.88437,3.74485 -2.18027,1.62733 -2.8221,4.20989 -2.40757,6.70401 0.27421,-1.52036 1.03569,-2.92284 2.40757,-3.94679 1.65757,-1.041 3.4256,-1.71656 5.25974,-2.17077 0.59077,-0.8101 1.44573,-1.42622 2.56787,-1.67371 2.5291,-0.54068 5.16047,-0.23333 7.70981,-0.65754 2.65335,-0.20555 5.29496,-0.60342 7.9624,-0.60529 -0.57305,-0.79836 -1.34249,-1.44033 -2.40024,-1.40984 z m 126.63495,2.13899 c -0.46257,1.78852 -1.80894,3.3269 -3.85634,3.51329 -2.7683,0.11529 -5.41577,-0.93227 -8.17704,-1.00649 -4.08441,-0.57004 -8.16875,-1.13956 -12.2531,-1.70979 -0.016,-0.0984 -0.0261,-0.20035 -0.0391,-0.3005 -0.13554,1.0406 -0.11605,2.09482 0.0391,3.05771 1.39226,0.19438 2.78457,0.38838 4.17688,0.58268 0.0598,-0.34003 0.12811,-0.67405 0.20557,-0.99464 1.44966,-1.00878 3.28467,0.22129 4.85312,0.29563 4.23356,0.94284 8.74278,2.38205 13.1202,2.15624 1.74136,-1.16329 2.4783,-3.57704 1.93071,-5.59413 z m -79.51581,4.82135 c -0.48391,1.91205 -1.95245,3.55931 -4.16215,3.68884 -7.15487,-0.23773 -14.30585,-0.56758 -21.45866,-0.85355 -0.0235,1.76711 -0.45449,3.91399 -0.22882,5.44873 0.0107,-5.4e-4 0.0214,-5.4e-4 0.0323,-10e-4 0.0813,-0.9114 0.18526,-1.84431 0.19652,-2.69044 7.15281,0.28597 14.30379,0.61582 21.45866,0.85355 3.25459,-0.19078 4.90504,-3.67286 4.16215,-6.44606 z m -42.49315,1.23536 c -0.0258,-0.003 -0.062,0.007 -0.111,0.0345 -0.0325,0.61231 0.29181,-0.0152 0.111,-0.0345 z m 2.35776,0.0528 c -0.22801,0.90643 -0.72798,1.71232 -1.62998,2.21331 0.19017,0.68837 0.47417,1.40623 0.85804,2.06305 0.98458,-1.12276 1.07351,-2.82149 0.77194,-4.27636 z m -23.64366,0.66076 c -0.53831,2.2278 0.26463,4.86534 2.42343,5.96247 2.46936,0.7165 5.19367,0.13917 7.73417,-0.0275 3.28053,-0.53233 6.55063,-0.58233 9.81664,-0.97525 0.37682,-0.97821 0.57295,-1.99261 0.62129,-2.83153 -3.47247,0.46831 -6.94943,0.4835 -10.43793,1.04957 -2.5405,0.16664 -5.26481,0.74397 -7.73417,0.0275 -1.29125,-0.65623 -2.09843,-1.8639 -2.42343,-3.20525 z m 162.30232,0.67638 c -0.0765,0.90066 -0.20179,1.78756 -0.62695,2.56765 2.48439,0.75057 4.96883,1.50103 7.45324,2.25155 1.30543,0.20399 2.61081,0.40824 3.91636,0.61175 0.0551,0.20714 0.11022,0.4143 0.16537,0.62145 1.8231,0.55072 3.6462,1.10143 5.46929,1.65217 1.92395,0.35634 3.76372,1.13229 5.6296,1.76257 2.46138,0.41978 4.93219,0.46362 7.31616,-0.51805 0.78736,-0.39871 1.4544,-0.90658 2.02927,-1.4917 0.39005,-1.03013 0.45592,-2.18945 0.1529,-3.23273 -0.48463,1.76838 -1.87642,3.28029 -3.95542,3.39482 -3.9536,0.3396 -7.40162,-1.9737 -11.17251,-2.67212 -5.45911,-1.64917 -10.91822,-3.29811 -16.37731,-4.94736 z m -39.24224,0.29241 c -0.31117,2.66124 0.1186,5.58787 2.64262,7.07505 6.0705,1.37437 12.41814,1.46566 18.6167,2.16969 l 0.70962,-2.67589 c -6.42264,-0.78251 -13.0241,-0.82418 -19.32632,-2.25101 -1.65967,-0.9779 -2.40884,-2.57987 -2.64262,-4.31784 z m -185.62259,4.44331 c -0.28075,0.88216 -0.85548,1.66271 -1.77212,2.16323 -3.86599,2.47725 -8.68962,2.74818 -12.91519,4.43362 -2.14907,0.64414 -4.29835,1.28795 -6.4474,1.9322 -0.71325,-1.81031 -1.42654,-3.62061 -2.13969,-5.43096 -0.32287,0.0998 -0.6456,0.19951 -0.97016,0.29403 1.03656,2.6314 2.07311,5.2628 3.10985,7.89413 0.36285,-0.10877 0.72569,-0.21757 1.08854,-0.32633 -0.24109,-0.3495 -0.48214,-0.69901 -0.72323,-1.0485 6.79813,-1.88479 13.4609,-4.28142 20.27837,-6.13964 0.74093,-1.07729 0.86441,-2.49516 0.49103,-3.77178 z m 3.74588,0.25741 c -0.11531,0.12562 -0.23472,0.24952 -0.36417,0.36888 -0.98954,0.57837 -0.7407,1.62283 -0.0283,2.16431 0.0154,-0.004 0.0305,-0.008 0.0459,-0.0113 0.54174,0.008 1.03099,0.1244 1.46686,0.31988 2.12088,-0.1303 4.23451,0.86884 5.13855,2.78415 0.61893,1.19077 1.03126,2.52873 1.20124,3.8951 0.2951,-2.2592 -0.16631,-4.6612 -1.20124,-6.65232 -0.95357,-2.02023 -3.25272,-3.02345 -5.48687,-2.75452 -0.27246,0.0289 -0.535,-0.0173 -0.77193,-0.11416 z m 235.92237,5.50581 c 1.93474,3.56316 3.86936,7.12638 5.80401,10.68958 0.56333,0.11846 1.12666,0.23696 1.69,0.35542 -1.92265,-3.54107 -3.84509,-7.08227 -5.76776,-10.62333 -0.58051,-0.15008 -1.15665,-0.29384 -1.72625,-0.42167 z m -232.63298,2.70982 c -0.20094,0.64344 -0.55208,1.23627 -1.06984,1.70602 -1.58835,1.29094 -3.9027,1.27941 -5.70548,2.23055 -5.01019,2.04693 -10.1888,3.8954 -15.28424,5.82999 -1.38487,-2.00733 -2.76947,-4.01483 -4.15422,-6.02224 -0.52959,0.15303 -1.05978,0.30402 -1.59089,0.45127 1.91503,2.77607 3.82994,5.5522 5.74511,8.32819 5.09544,-1.9346 10.27405,-3.78306 15.28424,-5.83 1.80278,-0.95113 4.11713,-0.93962 5.70548,-2.23054 1.22856,-1.11466 1.5286,-2.91638 1.06984,-4.46324 z"
       style="font-style:normal;font-variant:normal;font-weight:normal;font-stretch:normal;font-size:180.00001526px;line-height:125%;font-family:Baveuse;-inkscape-font-specification:Baveuse;letter-spacing:0px;word-spacing:0px;fill:#8bdaff;fill-opacity:1;stroke:none;stroke-width:1px;stroke-linecap:butt;stroke-linejoin:miter;stroke-opacity:1"
       inkscape:connector-curvature="0" />
    <path
       inkscape:connector-curvature="0"
       style="font-style:normal;font-variant:normal;font-weight:normal;font-stretch:normal;font-size:180.00001526px;line-height:125%;font-family:Baveuse;-inkscape-font-specification:Baveuse;letter-spacing:0px;word-spacing:0px;fill:#5607ff;fill-opacity:1;stroke:none;stroke-width:1px;stroke-linecap:butt;stroke-linejoin:miter;stroke-opacity:1"
       d="m 860.29185,355.21038 c -6.03947,-0.007 -12.07041,0.30158 -18.10866,0.4249 -0.0493,0.36903 -0.0403,0.73533 -0.006,1.10072 6.43514,-0.17787 12.87021,-0.35593 19.30538,-0.53314 l -0.17047,0.22296 -0.13821,0.1804 c 0.26124,0.0944 0.49441,0.22006 0.70116,0.36996 -0.11112,-0.82809 -0.6226,-1.57148 -1.58296,-1.7658 z m -45.5316,0.80401 c -5.98954,0.61305 -11.96603,1.53952 -17.95124,2.28062 -0.007,0.36574 0.0427,0.72291 0.11556,1.0765 6.29357,-0.82557 12.58708,-1.65165 18.8806,-2.47771 l -0.14387,0.23909 -0.1161,0.19279 c 0.39782,0.0981 0.74231,0.27025 1.03642,0.49382 -0.14832,-0.9014 -0.75622,-1.70195 -1.82137,-1.80511 z m 57.01392,2.44325 c -0.52407,0.8286 -1.69441,1.5867 -2.16405,2.10776 0.177,0.0748 0.34625,0.15771 0.51198,0.2445 0.68538,-0.67717 1.23404,-1.48188 1.65207,-2.35226 z m -45.78027,0.39797 c -0.41484,0.53978 -0.89927,1.04106 -1.46573,1.49007 0.16178,0.0466 0.31851,0.1 0.47292,0.15672 0.39828,-0.50382 0.72752,-1.05911 0.99281,-1.64679 z m 100.83967,3.94572 c -1.51792,-0.0551 -2.49688,1.12967 -3.04811,2.48256 0.78643,-0.88478 1.86917,-1.45301 3.31599,-1.39313 5.13641,0.82048 10.08218,2.46601 15.14551,3.58221 0.33376,0.093 0.619,0.2299 0.86313,0.39958 -0.0857,-0.45694 -0.28727,-0.88593 -0.62695,-1.22836 -4.93371,-1.49114 -10.04439,-2.83471 -15.16702,-3.78577 -0.16659,-0.0326 -0.32729,-0.0514 -0.48255,-0.057 z m -83.79518,2.21869 c -0.50682,-0.0262 -0.41707,0.46947 -0.17727,1.08566 7.3703,0.40041 14.79272,0.40083 22.11904,1.13411 0.16114,0.0636 0.30719,0.14152 0.44233,0.22888 -0.0223,-0.44205 -0.18078,-0.86528 -0.51428,-1.17936 -7.14041,-1.06616 -14.51205,-0.80367 -21.7543,-1.25582 -0.0416,-0.007 -0.0799,-0.0116 -0.11552,-0.0134 z m -23.06882,1.26822 c -6.6697,0.33614 -13.33858,0.77021 -20.00709,1.15727 -1.70183,-0.33966 -1.68704,0.30766 -1.28676,1.17666 7.03321,-0.41763 14.06604,-0.84187 21.10018,-1.24398 0.59508,-0.0103 1.09225,0.16827 1.4929,0.46259 -0.072,-0.72021 -0.48225,-1.37266 -1.29923,-1.55254 z m -94.13401,4.89566 c -6.01674,1.10465 -11.68664,3.45012 -17.54231,5.14877 0.0891,0.31424 0.19441,0.63449 0.3047,0.9564 5.67932,-1.70604 11.22715,-3.90074 17.06657,-5.01844 l 0.0357,-0.002 0.0357,0.002 c 0.67879,0.0305 1.25509,0.2805 1.7138,0.66399 -0.14087,-0.82624 -0.67208,-1.56298 -1.61412,-1.75072 z m 227.51312,2.05552 c -1.39571,1.89182 -3.335,3.38466 -5.74117,4.02919 -7.03962,1.8534 -13.96847,-1.46158 -20.60685,-3.24133 -0.0989,0.31174 -0.18068,0.65272 -0.23786,1.00756 6.12547,1.48835 12.00441,4.49722 18.45866,3.77124 3.52869,-0.31834 6.76962,-2.44061 8.12722,-5.56666 z m -81.58643,2.20524 c -1.68971,2.28607 -4.27509,3.97148 -7.21818,4.43846 -9.32021,0.3914 -18.63219,-0.75765 -27.93552,-1.07811 -0.0209,0.3696 -0.0419,0.7392 -0.0629,1.10881 9.00022,0.34906 17.98602,1.25253 26.98854,1.19766 3.54786,-0.3578 6.86384,-2.54679 8.22802,-5.66682 z m -43.8903,0.41843 c -1.44523,2.01358 -3.57385,3.57796 -6.08154,4.24729 -9.30208,1.35327 -18.78024,1.15348 -28.14562,1.80941 l 0.0629,1.10396 c 8.98717,-0.57574 18.02656,-0.60272 26.9625,-1.57515 3.16365,-0.65158 5.95633,-2.78127 7.2018,-5.58551 z m -95.02321,4.29468 c -6.82089,1.47348 -13.47591,3.53963 -20.2138,5.30709 -0.47032,0.20169 -0.40764,0.60593 -0.128,1.09212 6.73677,-1.77888 13.41221,-3.8208 20.21437,-5.31464 0.59239,0.0208 1.08467,0.21071 1.47989,0.50836 -0.0995,-0.73303 -0.5339,-1.39112 -1.35246,-1.59293 z m 146.97448,2.26445 -0.12745,1.09212 28.44468,1.91174 0.23049,-1.08457 c -9.51585,-0.64023 -19.03182,-1.27966 -28.54772,-1.91929 z m 37.9736,0.23373 c 0.53645,1.25572 1.38544,2.3786 2.59446,3.21818 4.45983,3.13571 10.22782,3.32057 15.38337,4.91128 3.02034,0.73616 6.04082,1.47231 9.0611,2.20846 0.11458,-0.32778 0.22924,-0.65554 0.3438,-0.98332 -2.01364,-0.49068 -4.02713,-0.98158 -6.04074,-1.47233 -5.53433,-1.71896 -11.457,-2.17987 -16.78908,-4.49392 -1.87175,-0.65733 -3.43355,-1.87247 -4.55291,-3.38835 z m -134.38665,0.0243 c -1.07821,1.23121 -2.60583,2.1225 -4.28164,2.45779 -5.67156,0.64993 -11.2029,2.29912 -16.91707,2.93062 -3.40407,0.72783 -6.93069,-0.79764 -8.97674,-3.38728 1.3301,2.66121 4.00893,4.81601 7.25559,4.59302 4.33643,-0.0622 8.50769,-1.46487 12.78548,-2.1056 3.08223,-0.69933 6.77958,-0.42483 9.12286,-2.75022 0.44291,-0.55061 0.77212,-1.13331 1.01152,-1.73833 z m -42.64547,7.50693 c -0.86345,1.19494 -1.98537,2.21624 -3.35736,2.95269 -9.0538,3.38087 -18.69575,5.11392 -27.97968,7.80098 l 0.2894,0.9801 c 8.78449,-2.44454 17.74834,-4.3295 26.3905,-7.17467 2.08752,-0.93274 3.71442,-2.59916 4.65714,-4.5591 z m 117.89095,21.33932 c 0.0211,0.3678 0.0422,0.73561 0.0635,1.10343 3.00753,0.0428 6.01505,0.086 9.02261,0.1287 0.006,-0.36728 0.0113,-0.73455 0.0171,-1.10182 -3.03435,-0.0433 -6.0687,-0.0872 -9.10305,-0.13031 z m -30.59907,0.27949 c -1.27745,-0.0393 -2.29381,0.94699 -2.65225,2.11314 0.5241,-0.50575 1.20566,-0.8508 2.03095,-0.92733 3.57729,-0.079 7.15668,0.48144 10.7398,0.55252 l 10.63391,0.6263 c 0.003,-0.36656 0.005,-0.73311 0.007,-1.09966 -6.7205,-0.37086 -13.43663,-0.81174 -20.15774,-1.17235 -0.20562,-0.0568 -0.40692,-0.0866 -0.60204,-0.0927 z m 49.48932,1.26712 c -0.0281,0.36727 -0.0563,0.73455 -0.0844,1.10182 3.46934,0.0521 6.93865,0.10448 10.40793,0.1567 0.05,-0.36691 0.10005,-0.73381 0.15009,-1.10072 -3.4912,-0.0521 -6.98243,-0.10532 -10.47361,-0.1578 z m -77.76068,0.89934 c -8.64364,0.64547 -17.1006,2.74576 -25.66725,4.00979 l 0.11667,1.0625 c 8.3195,-1.30187 16.59275,-3.08827 24.96666,-4.0545 1.24897,0.0439 2.31468,0.59699 3.10081,1.41684 -0.40588,-1.15902 -1.22993,-2.17006 -2.51689,-2.43463 z m 106.29142,1.78679 c -1.44607,0.0507 -2.39678,1.15514 -2.90937,2.45618 0.81637,-0.90171 1.96776,-1.46186 3.51707,-1.36514 5.21922,0.85749 10.50568,1.61637 15.62746,2.82829 0.10932,0.069 0.20992,0.14445 0.30639,0.22295 -0.0802,-0.43704 -0.26016,-0.84758 -0.5573,-1.17881 -4.42216,-1.41797 -9.21439,-1.90895 -13.83096,-2.68397 -0.55385,-0.0858 -1.10788,-0.17166 -1.6617,-0.25741 -0.16992,-0.0207 -0.33353,-0.0276 -0.49159,-0.022 z m -88.94055,2.92847 c 0.58563,1.28624 1.47683,2.42062 2.75588,3.27473 4.16948,2.44851 9.26793,1.42429 13.90181,1.70171 2.82148,0.1176 5.8036,-0.34921 8.52988,0.44482 0.2809,0.14031 0.52949,0.31478 0.74871,0.51428 -0.0722,-0.32422 -0.19254,-0.63449 -0.37833,-0.9074 -1.58317,-1.75681 -4.45291,-1.03805 -6.59633,-1.12604 -5.42612,-0.42336 -11.30441,0.90653 -16.33825,-1.6344 -1.07625,-0.59182 -1.94083,-1.36891 -2.62337,-2.2677 z m -16.28669,4.57362 c -4.82912,0.24129 -9.61566,0.97427 -14.45511,1.09966 -1.38662,-0.046 -2.27821,0.8353 -2.61144,1.93166 1.82168,-1.36806 4.65962,-0.62492 6.78322,-1.11149 3.40322,-0.2787 6.80668,-0.5802 10.21083,-0.8347 0.86612,0.0632 1.54568,0.4112 2.06042,0.92678 -0.29952,-0.96253 -0.98722,-1.79943 -1.98792,-2.01191 z m 145.61068,0.95426 c -0.14569,0.32666 -0.21871,0.66575 -0.26052,1.01026 l 0.0346,0.007 0.0623,0.014 c 8.7066,2.07047 17.54673,3.71325 26.17697,6.04432 0.26165,0.12277 0.49388,0.27418 0.69945,0.44643 -0.0771,-0.50242 -0.30648,-0.9775 -0.72381,-1.3436 -8.05766,-2.58345 -16.54642,-3.87894 -24.79619,-5.89892 l -1.19275,-0.28002 z m -13.65031,0.72269 c -1.26817,1.75751 -3.0317,3.16814 -5.20141,3.88595 -6.8458,2.24763 -13.95263,-0.56613 -20.6482,-1.8525 -0.0716,0.32982 -0.12437,0.68813 -0.15122,1.05819 6.07534,1.05941 12.08755,3.54314 18.31936,2.48795 3.35001,-0.5033 6.39752,-2.59975 7.68147,-5.57959 z M 715.0748,430.2895 c -5.96943,1.30887 -11.54464,3.84242 -17.34523,5.7379 0.10204,0.30418 0.21645,0.61226 0.33529,0.92141 5.57581,-1.88749 11.0062,-4.24136 16.76074,-5.5602 0.081,5.5e-4 0.16228,-0.0128 0.24296,-0.005 0.6684,0.0449 1.23857,0.299 1.69398,0.68176 -0.14759,-0.85018 -0.70459,-1.60513 -1.68774,-1.77604 z m 134.42004,2.44541 c -1.21622,1.56729 -3.00626,2.76132 -4.97825,3.28819 -8.70949,1.38373 -17.60848,0.75507 -26.39334,1.17666 l -0.0753,1.11851 c 8.27602,-0.34746 16.58797,-0.0326 24.82678,-0.86164 2.80811,-0.43861 5.65273,-2.16341 6.62012,-4.72172 z m -46.00735,2.17992 c -0.0297,0.056 -0.0649,0.11239 -0.0957,0.16855 1.02538,2.01873 3.42268,3.1839 5.79665,2.85631 0.82802,0.0496 0.43794,-0.55706 0.15293,-1.1589 -2.03226,0.46952 -4.41709,-0.44976 -5.85386,-1.86596 z m -28.998,0.63114 c 1.28576,2.5859 3.67044,4.66056 6.73227,5.10785 5.46582,1.11425 10.96848,-0.0736 16.48606,-0.10076 2.24361,-0.38015 3.81977,-1.99289 4.66905,-3.90856 -0.90896,1.17005 -2.09597,2.18127 -3.58333,2.59513 -5.18057,0.36174 -10.45966,1.08979 -15.69259,0.61067 -3.41252,-0.0315 -6.62076,-1.73187 -8.61146,-4.30437 z m 123.54037,0.17717 c 0.43974,1.04065 1.10324,1.98868 2.06493,2.76368 4.41211,3.53543 10.58458,3.20822 15.8976,4.44654 l 10.0636,1.71464 c 0.0919,-0.34628 0.18389,-0.69253 0.27582,-1.0388 -2.46827,-0.4201 -4.93638,-0.8409 -7.40455,-1.26121 -5.65793,-1.3853 -11.81022,-1.16504 -17.17077,-3.70446 -1.55273,-0.6227 -2.80089,-1.65733 -3.72663,-2.92039 z m 50.69904,0.36889 c -0.12626,0.32457 -0.24686,0.65799 -0.36754,0.9914 1.53593,0.24016 3.07183,0.4804 4.60785,0.72001 -0.0889,-0.33441 -0.17778,-0.66886 -0.26674,-1.00326 -1.23239,-0.57147 -2.65639,-0.45127 -3.97357,-0.70815 z m 29.29307,0.69468 c -0.40741,0.59031 -0.85536,1.15798 -1.36322,1.69041 -3.462,3.49079 -9.10218,3.09326 -13.57555,1.9769 0.21568,0.40191 0.43888,0.80884 0.65583,1.21166 3.6934,0.82934 7.63839,1.25469 10.96636,-0.77762 1.5148,-1.09356 2.53664,-2.52582 3.31658,-4.10135 z m -103.3373,0.69201 c -2.0438,0.005 -4.0876,0.0101 -6.13139,0.0151 -0.006,0.36743 -0.0113,0.73488 -0.0171,1.10234 2.02135,-0.005 4.04268,-0.0101 6.064,-0.0145 0.0281,-0.36763 0.0563,-0.73525 0.0844,-1.10289 z m -152.25574,1.55254 c -6.77053,1.68592 -13.3455,3.98393 -20.01729,5.97754 -0.42282,0.22306 -0.35828,0.61209 -0.0872,1.0722 6.64673,-1.99797 13.22999,-4.27081 19.96066,-5.96355 0.61667,0.0101 1.13162,0.20419 1.54275,0.51697 -0.10844,-0.75008 -0.55852,-1.42094 -1.3989,-1.60316 z m 46.9713,3.56768 c -9.18982,2.42626 -18.37975,4.8521 -27.56965,7.27807 l 0.24637,0.99572 27.47619,-7.2533 -0.15291,-1.02049 z m 169.021,3.34689 c -0.0705,0.34682 -0.14126,0.69359 -0.21182,1.04041 l 6.14157,1.16751 c 0.10532,-0.34017 0.21067,-0.68034 0.31602,-1.02049 -2.08193,-0.39588 -4.1638,-0.79189 -6.24577,-1.18743 z m -207.96251,3.18371 c -0.7809,1.07185 -1.7758,2.00226 -2.98583,2.70875 -8.9522,3.70034 -18.56222,5.75527 -27.76956,8.766 l 0.31829,0.94778 c 8.68354,-2.73351 17.58028,-4.92374 26.11184,-8.05352 1.94416,-0.9499 3.43495,-2.52551 4.32526,-4.36901 z m 226.68905,2.08623 c 0.10118,0.3802 0.2024,0.76037 0.30358,1.14058 l 10.81401,2.27362 c -0.2198,-0.40477 -0.43945,-0.80959 -0.65926,-1.21435 -3.48613,-0.73318 -6.97228,-1.46631 -10.45833,-2.19985 z"
       id="path4495" />
  </g>
</svg>
