<?xml version="1.0" encoding="UTF-8" standalone="no"?>
<!-- Created with Inkscape (http://www.inkscape.org/) -->

<svg
   xmlns:dc="http://purl.org/dc/elements/1.1/"
   xmlns:cc="http://creativecommons.org/ns#"
   xmlns:rdf="http://www.w3.org/1999/02/22-rdf-syntax-ns#"
   xmlns:svg="http://www.w3.org/2000/svg"
   xmlns="http://www.w3.org/2000/svg"
   xmlns:xlink="http://www.w3.org/1999/xlink"
   xmlns:sodipodi="http://sodipodi.sourceforge.net/DTD/sodipodi-0.dtd"
   xmlns:inkscape="http://www.inkscape.org/namespaces/inkscape"
   width="507.78906"
   height="51"
   viewBox="0 0 507.78906 50.999998"
   id="svg2"
   version="1.1"
   inkscape:version="0.91 r13725"
   sodipodi:docname="numberz.svg">
  <defs
     id="defs4">
    <pattern
       inkscape:collect="always"
       xlink:href="#Checkerboardwhite"
       id="pattern5955"
       patternTransform="matrix(10,0,0,9.9710274,0,1.3446785)" />
    <pattern
       inkscape:stockid="Checkerboard white"
       id="Checkerboardwhite"
       patternTransform="translate(0,0) scale(10,10)"
       height="2"
       width="2"
       patternUnits="userSpaceOnUse"
       inkscape:collect="always">
      <rect
         id="rect5004"
         height="1"
         width="1"
         y="0"
         x="0"
         style="fill:white;stroke:none" />
      <rect
         id="rect5006"
         height="1"
         width="1"
         y="1"
         x="1"
         style="fill:white;stroke:none" />
    </pattern>
    <linearGradient
       inkscape:collect="always"
       id="linearGradient4140">
      <stop
         style="stop-color:#0cccff;stop-opacity:1"
         offset="0"
         id="stop4142" />
      <stop
         style="stop-color:#2779f0;stop-opacity:1"
         offset="1"
         id="stop4144" />
    </linearGradient>
    <linearGradient
       inkscape:collect="always"
       xlink:href="#linearGradient4140"
       id="linearGradient4146"
       x1="271.07144"
       y1="420.93362"
       x2="271.07144"
       y2="464.50507"
       gradientUnits="userSpaceOnUse"
       gradientTransform="matrix(1,0,0,0.99710274,0,1.3446785)" />
  </defs>
  <sodipodi:namedview
     id="base"
     pagecolor="#ffffff"
     bordercolor="#666666"
     borderopacity="1.0"
     inkscape:pageopacity="0.0"
     inkscape:pageshadow="2"
     inkscape:zoom="1"
     inkscape:cx="293.56302"
     inkscape:cy="-54.240508"
     inkscape:document-units="px"
     inkscape:current-layer="layer1"
     showgrid="false"
     fit-margin-top="0"
     fit-margin-left="0"
     fit-margin-right="0"
     fit-margin-bottom="0"
     units="px"
     inkscape:window-width="1920"
     inkscape:window-height="1137"
     inkscape:window-x="1912"
     inkscape:window-y="-8"
     inkscape:window-maximized="1" />
  <metadata
     id="metadata7">
    <rdf:RDF>
      <cc:Work
         rdf:about="">
        <dc:format>image/svg+xml</dc:format>
        <dc:type
           rdf:resource="http://purl.org/dc/dcmitype/StillImage" />
        <dc:title></dc:title>
      </cc:Work>
    </rdf:RDF>
  </metadata>
  <g
     inkscape:label="Layer 1"
     inkscape:groupmode="layer"
     id="layer1"
     transform="translate(-100.21877,-417.12106)">
    <path
       style="font-style:normal;font-variant:normal;font-weight:normal;font-stretch:normal;font-size:22px;line-height:100%;font-family:Arial;-inkscape-font-specification:Sans;letter-spacing:0px;word-spacing:0px;fill:none;fill-opacity:1;stroke:#4722b3;stroke-width:7.99999952;stroke-linecap:round;stroke-linejoin:round;stroke-miterlimit:4;stroke-dasharray:none;stroke-opacity:1"
       d="m 321.82031,421.12103 -11.73047,19.89532 0.23047,10.66238 17.59571,0 0.22851,12.04118 14.77735,-1.54823 -1.55079,-10.49295 8.10743,-0.51608 0,-10.2612 -9.08594,-0.40118 -2.5293,-18.2906 -16.04297,-1.08864 z m 269.13672,0 -15.52539,4.01373 -2.07031,12.26904 7.87695,8.60001 10.46484,-0.80236 -3.1621,5.56003 -15.17969,3.95725 6.66992,9.17256 19.0332,-7.22316 4.42578,-11.06549 0.51758,-15.65179 -13.05078,-8.82982 z m -151.74023,0.0564 -10.40625,1.54824 -7.2461,8.25726 -1.60937,11.69453 0,14.39178 7.82031,6.82197 14.0293,0 6.84179,-6.82197 0.11524,-10.31963 -4.88672,-7.91255 -12.30469,-0.3447 0.51758,-3.20943 4.3125,-3.38275 9.25781,3.43923 3.91016,-12.03924 -10.35156,-2.12274 z m 90.87695,0.0584 -4.02539,12.95649 5.34766,4.30001 -7.01563,5.33215 -0.97656,15.13571 8.85547,5.16079 14.94922,0 9.37304,-3.66902 -0.86328,-16.85727 -6.66992,-5.44512 5.00195,-3.95725 -4.13867,-11.29335 -19.83789,-1.66314 z m -414.43359,0.17137 -8.85352,7.79766 -2.58789,21.95768 12.70703,12.72864 15.69727,-5.10236 3.16211,-25.28395 -9.83204,-11.52511 -10.29296,-0.57256 z m 101.0664,0 -11.90234,7.85414 7.82031,11.23882 6.95703,-4.75961 2.75977,2.17922 1.20898,3.66903 -17.02148,13.4161 4.37109,8.42863 33.11914,0.45765 -3.27734,-13.64589 -12.53516,1.03215 11.44336,-7.50943 -3.79492,-15.88158 -8.74023,-6.4208 -10.40821,-0.0584 z m -51.43164,0.0584 -15.4668,9.34394 7.64649,10.37805 7.1875,-4.52981 0,15.53689 -13.68359,-0.74394 -1.1504,12.44042 40.99805,0 -1.95508,-13.24472 -12.13281,1.54824 3.39258,-29.92672 -14.83594,-0.80235 z m 235.25391,0 -32.89063,0.97373 0.57618,16.68394 4.65624,8.02746 13.05274,-0.28822 2.875,2.69528 -2.5293,2.92511 -6.43945,-0.28823 -7.13086,-2.46549 -4.6582,8.77333 10.46679,4.87257 19.83594,-2.0059 4.3125,-6.93687 0.0586,-12.78706 -11.2129,-6.0761 -9.31445,-0.34471 -0.3457,-2.58039 16.27344,0.17333 2.41406,-11.35178 z m -129.83008,0.0564 -10.17773,7.62432 5.52148,8.77334 9.60156,-4.4149 1.78321,1.89099 -6.84375,4.5298 -0.34375,5.16079 8.45117,2.86667 -0.17188,3.26784 -5.40429,1.43334 -5.75,-5.38863 -6.84375,6.65059 8.45312,8.54158 15.35352,1.43334 6.84179,-7.45295 -0.3457,-12.95844 -5.00195,-3.66903 4.02539,-5.78982 -6.21094,-10.66432 -12.9375,-1.83451 z m 197.37695,0 2.93164,15.30708 19.66602,-1.60472 -9.14258,24.94121 16.67383,3.9553 6.72851,-41.79652 -36.85742,-0.80235 z m 71.88868,7.73923 2.52929,1.03215 0,2.06431 -2.52929,1.03216 -2.53126,-1.03216 0,-2.06431 2.53126,-1.03215 z m 49.53515,2.58039 2.29883,1.89293 -0.51758,2.69336 -5.00195,0 0,-2.69336 3.2207,-1.89293 z m -262.58203,2.69529 0.46094,5.96314 -5.11914,0 4.6582,-5.96314 z m -208.11523,1.43334 3.50781,1.48981 0.51758,8.08393 -2.75977,1.94941 -2.5293,-2.12078 1.26368,-9.40237 z m 422.19726,11.75296 3.33399,1.37685 0,2.75178 -3.33399,1.3749 -3.33594,-1.3749 0,-2.75178 3.33594,-1.37685 z m -106.23047,0.91725 2.875,1.03216 -0.91992,3.66903 -4.54102,0 -0.11523,-3.38275 2.70117,-1.31844 z"
       id="path4201"
       inkscape:connector-curvature="0" />
    <path
       style="font-style:normal;font-variant:normal;font-weight:normal;font-stretch:normal;font-size:22px;line-height:100%;font-family:Arial;-inkscape-font-specification:Sans;letter-spacing:0px;word-spacing:0px;fill:url(#linearGradient4146);fill-opacity:1;stroke:#75eccf;stroke-width:1.99999988;stroke-linecap:round;stroke-linejoin:round;stroke-miterlimit:4;stroke-dasharray:none;stroke-opacity:1"
       d="m 321.82031,421.12103 -11.73047,19.89532 0.23047,10.66238 17.59571,0 0.22851,12.04118 14.77735,-1.54823 -1.55079,-10.49295 8.10743,-0.51608 0,-10.2612 -9.08594,-0.40118 -2.5293,-18.2906 -16.04297,-1.08864 z m 269.13672,0 -15.52539,4.01373 -2.07031,12.26904 7.87695,8.60001 10.46484,-0.80236 -3.1621,5.56003 -15.17969,3.95725 6.66992,9.17256 19.0332,-7.22316 4.42578,-11.06549 0.51758,-15.65179 -13.05078,-8.82982 z m -151.74023,0.0564 -10.40625,1.54824 -7.2461,8.25726 -1.60937,11.69453 0,14.39178 7.82031,6.82197 14.0293,0 6.84179,-6.82197 0.11524,-10.31963 -4.88672,-7.91255 -12.30469,-0.3447 0.51758,-3.20943 4.3125,-3.38275 9.25781,3.43923 3.91016,-12.03924 -10.35156,-2.12274 z m 90.87695,0.0584 -4.02539,12.95649 5.34766,4.30001 -7.01563,5.33215 -0.97656,15.13571 8.85547,5.16079 14.94922,0 9.37304,-3.66902 -0.86328,-16.85727 -6.66992,-5.44512 5.00195,-3.95725 -4.13867,-11.29335 -19.83789,-1.66314 z m -414.43359,0.17137 -8.85352,7.79766 -2.58789,21.95768 12.70703,12.72864 15.69727,-5.10236 3.16211,-25.28395 -9.83204,-11.52511 -10.29296,-0.57256 z m 101.0664,0 -11.90234,7.85414 7.82031,11.23882 6.95703,-4.75961 2.75977,2.17922 1.20898,3.66903 -17.02148,13.4161 4.37109,8.42863 33.11914,0.45765 -3.27734,-13.64589 -12.53516,1.03215 11.44336,-7.50943 -3.79492,-15.88158 -8.74023,-6.4208 -10.40821,-0.0584 z m -51.43164,0.0584 -15.4668,9.34394 7.64649,10.37805 7.1875,-4.52981 0,15.53689 -13.68359,-0.74394 -1.1504,12.44042 40.99805,0 -1.95508,-13.24472 -12.13281,1.54824 3.39258,-29.92672 -14.83594,-0.80235 z m 235.25391,0 -32.89063,0.97373 0.57618,16.68394 4.65624,8.02746 13.05274,-0.28822 2.875,2.69528 -2.5293,2.92511 -6.43945,-0.28823 -7.13086,-2.46549 -4.6582,8.77333 10.46679,4.87257 19.83594,-2.0059 4.3125,-6.93687 0.0586,-12.78706 -11.2129,-6.0761 -9.31445,-0.34471 -0.3457,-2.58039 16.27344,0.17333 2.41406,-11.35178 z m -129.83008,0.0564 -10.17773,7.62432 5.52148,8.77334 9.60156,-4.4149 1.78321,1.89099 -6.84375,4.5298 -0.34375,5.16079 8.45117,2.86667 -0.17188,3.26784 -5.40429,1.43334 -5.75,-5.38863 -6.84375,6.65059 8.45312,8.54158 15.35352,1.43334 6.84179,-7.45295 -0.3457,-12.95844 -5.00195,-3.66903 4.02539,-5.78982 -6.21094,-10.66432 -12.9375,-1.83451 z m 197.37695,0 2.93164,15.30708 19.66602,-1.60472 -9.14258,24.94121 16.67383,3.9553 6.72851,-41.79652 -36.85742,-0.80235 z m 71.88868,7.73923 2.52929,1.03215 0,2.06431 -2.52929,1.03216 -2.53126,-1.03216 0,-2.06431 2.53126,-1.03215 z m 49.53515,2.58039 2.29883,1.89293 -0.51758,2.69336 -5.00195,0 0,-2.69336 3.2207,-1.89293 z m -262.58203,2.69529 0.46094,5.96314 -5.11914,0 4.6582,-5.96314 z m -208.11523,1.43334 3.50781,1.48981 0.51758,8.08393 -2.75977,1.94941 -2.5293,-2.12078 1.26368,-9.40237 z m 422.19726,11.75296 3.33399,1.37685 0,2.75178 -3.33399,1.3749 -3.33594,-1.3749 0,-2.75178 3.33594,-1.37685 z m -106.23047,0.91725 2.875,1.03216 -0.91992,3.66903 -4.54102,0 -0.11523,-3.38275 2.70117,-1.31844 z"
       id="path4199"
       inkscape:connector-curvature="0" />
    <path
       style="font-style:normal;font-variant:normal;font-weight:normal;font-stretch:normal;font-size:22px;line-height:100%;font-family:Arial;-inkscape-font-specification:Sans;letter-spacing:0px;word-spacing:0px;opacity:0.3;fill:url(#pattern5955);fill-opacity:1;fill-rule:nonzero;stroke:none;stroke-width:2;stroke-linecap:round;stroke-linejoin:round;stroke-miterlimit:4;stroke-dasharray:none;stroke-opacity:1"
       d="m 321.82031,421.12103 -11.73047,19.89532 0.23047,10.66238 17.59571,0 0.22851,12.04119 14.77735,-1.54824 -1.55079,-10.49295 8.10743,-0.51608 0,-10.2612 -9.08594,-0.40118 -2.5293,-18.2906 -16.04297,-1.08864 z m 269.13672,0 -15.52539,4.01373 -2.07031,12.26904 7.87695,8.60001 10.46484,-0.80236 -3.1621,5.56003 -15.17969,3.95725 6.66992,9.17256 19.0332,-7.22315 4.42578,-11.0655 0.51758,-15.65179 -13.05078,-8.82982 z m -151.74023,0.0564 -10.40625,1.54824 -7.2461,8.25726 -1.60937,11.69453 0,14.39178 7.82031,6.82197 14.0293,0 6.84179,-6.82197 0.11524,-10.31962 -4.88672,-7.91256 -12.30469,-0.3447 0.51758,-3.20943 4.3125,-3.38275 9.25781,3.43923 3.91016,-12.03924 -10.35156,-2.12274 z m 90.87695,0.0584 -4.02539,12.95649 5.34766,4.30001 -7.01563,5.33216 -0.97656,15.13571 8.85547,5.16078 14.94922,0 9.37304,-3.66902 -0.86328,-16.85727 -6.66992,-5.44512 5.00195,-3.95725 -4.13867,-11.29335 -19.83789,-1.66314 z m -414.43359,0.17137 -8.85352,7.79766 -2.58789,21.95768 12.70703,12.72864 15.69727,-5.10236 3.16211,-25.28395 -9.83204,-11.52511 -10.29296,-0.57256 z m 101.0664,0 -11.90234,7.85414 7.82031,11.23882 6.95703,-4.75961 2.75977,2.17922 1.20898,3.66903 -17.02148,13.4161 4.37109,8.42863 33.11914,0.45765 -3.27734,-13.64589 -12.53516,1.03215 11.44336,-7.50943 -3.79492,-15.88158 -8.74023,-6.4208 -10.40821,-0.0584 z m -51.43164,0.0584 -15.4668,9.34394 7.64649,10.37805 7.1875,-4.52981 0,15.53689 -13.68359,-0.74393 -1.1504,12.44041 40.99805,0 -1.95508,-13.24472 -12.13281,1.54824 3.39258,-29.92672 -14.83594,-0.80235 z m 235.25391,0 -32.89063,0.97373 0.57618,16.68395 4.65624,8.02745 13.05274,-0.28822 2.875,2.69529 -2.5293,2.9251 -6.43945,-0.28823 -7.13086,-2.46549 -4.6582,8.77334 10.46679,4.87256 19.83594,-2.00589 4.3125,-6.93688 0.0586,-12.78706 -11.2129,-6.0761 -9.31445,-0.34471 -0.3457,-2.58039 16.27344,0.17333 2.41406,-11.35178 z m -129.83008,0.0564 -10.17773,7.62432 5.52148,8.77334 9.60156,-4.4149 1.78321,1.89099 -6.84375,4.5298 -0.34375,5.16079 8.45117,2.86667 -0.17188,3.26784 -5.40429,1.43334 -5.75,-5.38863 -6.84375,6.65059 8.45312,8.54158 15.35352,1.43334 6.84179,-7.45295 -0.3457,-12.95844 -5.00195,-3.66903 4.02539,-5.78982 -6.21094,-10.66432 -12.9375,-1.83451 z m 197.37695,0 2.93164,15.30708 19.66602,-1.60472 -9.14258,24.94121 16.67383,3.9553 6.72851,-41.79652 -36.85742,-0.80235 z m 71.88868,7.73923 2.52929,1.03215 0,2.06431 -2.52929,1.03216 -2.53126,-1.03216 0,-2.06431 2.53126,-1.03215 z m 49.53515,2.58039 2.29883,1.89293 -0.51758,2.69336 -5.00195,0 0,-2.69336 3.2207,-1.89293 z m -262.58203,2.69529 0.46094,5.96314 -5.11914,0 4.6582,-5.96314 z m -208.11523,1.43334 3.50781,1.48981 0.51758,8.08393 -2.75977,1.94941 -2.5293,-2.12078 1.26368,-9.40237 z m 422.19726,11.75296 3.33399,1.37686 0,2.75177 -3.33399,1.3749 -3.33594,-1.3749 0,-2.75177 3.33594,-1.37686 z m -106.23047,0.91725 2.875,1.03216 -0.91992,3.66903 -4.54102,0 -0.11523,-3.38275 2.70117,-1.31844 z"
       id="path4203"
       inkscape:connector-curvature="0" />
  </g>
</svg>
