<?xml version="1.0" encoding="UTF-8" standalone="no"?>
<!-- Created with Inkscape (http://www.inkscape.org/) -->

<svg
   xmlns:dc="http://purl.org/dc/elements/1.1/"
   xmlns:cc="http://creativecommons.org/ns#"
   xmlns:rdf="http://www.w3.org/1999/02/22-rdf-syntax-ns#"
   xmlns:svg="http://www.w3.org/2000/svg"
   xmlns="http://www.w3.org/2000/svg"
   xmlns:xlink="http://www.w3.org/1999/xlink"
   xmlns:sodipodi="http://sodipodi.sourceforge.net/DTD/sodipodi-0.dtd"
   xmlns:inkscape="http://www.inkscape.org/namespaces/inkscape"
   width="240"
   height="100"
   viewBox="0 0 240 100"
   id="svg2"
   version="1.1"
   inkscape:version="0.91 r13725"
   sodipodi:docname="play.svg"
   inkscape:export-filename="C:\Users\matt\path4205.png"
   inkscape:export-xdpi="89.999992"
   inkscape:export-ydpi="89.999992">
  <defs
     id="defs4">
    <linearGradient
       id="linearGradient4195">
      <stop
         style="stop-color:#ffffff;stop-opacity:0;"
         offset="0"
         id="stop4197" />
      <stop
         id="stop4199"
         offset="0.40000001"
         style="stop-color:#ffffff;stop-opacity:1;" />
      <stop
         style="stop-color:#ffffff;stop-opacity:0;"
         offset="1"
         id="stop4201" />
    </linearGradient>
    <linearGradient
       inkscape:collect="always"
       xlink:href="#linearGradient3939-7"
       id="linearGradient4428"
       gradientUnits="userSpaceOnUse"
       x1="167.60875"
       y1="354.88416"
       x2="167.60875"
       y2="469.23911"
       gradientTransform="matrix(0.99656895,0,0,0.99538276,472.92677,798.70482)" />
    <linearGradient
       id="linearGradient3939-7">
      <stop
         id="stop3941-4"
         offset="0"
         style="stop-color:#ffffff;stop-opacity:0;" />
      <stop
         style="stop-color:#ffffff;stop-opacity:1;"
         offset="0.5"
         id="stop3945-0" />
      <stop
         id="stop3943-9"
         offset="1"
         style="stop-color:#ffffff;stop-opacity:0;" />
    </linearGradient>
    <linearGradient
       gradientTransform="matrix(0.99656895,0,0,0.99538276,570.02089,1101.9617)"
       inkscape:collect="always"
       xlink:href="#linearGradient3939-7"
       id="linearGradient4449"
       x1="58.935547"
       y1="126.29492"
       x2="294.29688"
       y2="126.29492"
       gradientUnits="userSpaceOnUse" />
    <linearGradient
       gradientTransform="matrix(0.99597567,0,0,0.99597568,472.64522,799.18058)"
       inkscape:collect="always"
       xlink:href="#linearGradient3860"
       id="linearGradient4331"
       x1="167.60875"
       y1="382.79532"
       x2="167.60875"
       y2="479.13861"
       gradientUnits="userSpaceOnUse" />
    <linearGradient
       id="linearGradient3860">
      <stop
         style="stop-color:#ff009b;stop-opacity:1;"
         offset="0"
         id="stop3862" />
      <stop
         style="stop-color:#bc0029;stop-opacity:1;"
         offset="1"
         id="stop3864" />
    </linearGradient>
    <linearGradient
       inkscape:collect="always"
       xlink:href="#linearGradient3860"
       id="linearGradient4481"
       x1="167.60875"
       y1="382.79532"
       x2="167.60875"
       y2="479.13861"
       gradientUnits="userSpaceOnUse" />
  </defs>
  <sodipodi:namedview
     id="base"
     pagecolor="#ffffff"
     bordercolor="#666666"
     borderopacity="1.0"
     inkscape:pageopacity="0.0"
     inkscape:pageshadow="2"
     inkscape:zoom="1"
     inkscape:cx="130.44074"
     inkscape:cy="12.653922"
     inkscape:document-units="px"
     inkscape:current-layer="layer1"
     showgrid="false"
     units="px"
     fit-margin-top="0"
     fit-margin-left="0"
     fit-margin-right="0"
     fit-margin-bottom="0"
     inkscape:window-width="1920"
     inkscape:window-height="1137"
     inkscape:window-x="1912"
     inkscape:window-y="-8"
     inkscape:window-maximized="1" />
  <metadata
     id="metadata7">
    <rdf:RDF>
      <cc:Work
         rdf:about="">
        <dc:format>image/svg+xml</dc:format>
        <dc:type
           rdf:resource="http://purl.org/dc/dcmitype/StillImage" />
        <dc:title></dc:title>
      </cc:Work>
    </rdf:RDF>
  </metadata>
  <g
     inkscape:label="Layer 1"
     inkscape:groupmode="layer"
     id="layer1"
     transform="translate(-625.30803,-1176.8706)">
    <text
       xml:space="preserve"
       style="font-style:normal;font-variant:normal;font-weight:normal;font-stretch:normal;font-size:21.91146469px;line-height:125%;font-family:Arial;-inkscape-font-specification:Sans;letter-spacing:0px;word-spacing:0px;fill:#e72f75;fill-opacity:1;stroke:#7d0f38;stroke-width:4;stroke-linecap:round;stroke-linejoin:round;stroke-miterlimit:4;stroke-dasharray:none;stroke-opacity:1"
       x="622.96625"
       y="1269.4441"
       id="text4215"
       sodipodi:linespacing="125%"
       transform="scale(1.0005957,0.99940469)"><tspan
         sodipodi:role="line"
         id="tspan4217"
         x="622.96625"
         y="1269.4441"
         style="font-style:normal;font-variant:normal;font-weight:normal;font-stretch:normal;font-size:119.51708221px;font-family:DFMaruGothic-UB;-inkscape-font-specification:DFMaruGothic-UB;letter-spacing:0.49798784px;fill:#e72f75;fill-opacity:1;stroke:#7d0f38;stroke-width:4;stroke-linecap:round;stroke-linejoin:round;stroke-miterlimit:4;stroke-dasharray:none;stroke-opacity:1">PLAY</tspan></text>
    <text
       sodipodi:linespacing="125%"
       id="text4321"
       y="1269.4441"
       x="622.96625"
       style="font-style:normal;font-variant:normal;font-weight:normal;font-stretch:normal;font-size:21.91146469px;line-height:125%;font-family:Arial;-inkscape-font-specification:Sans;letter-spacing:0px;word-spacing:0px;fill:url(#linearGradient4331);fill-opacity:1;stroke:none;stroke-width:4;stroke-linecap:round;stroke-linejoin:round;stroke-miterlimit:4;stroke-dasharray:none;stroke-opacity:1"
       xml:space="preserve"
       transform="scale(1.0005957,0.99940469)"><tspan
         style="font-style:normal;font-variant:normal;font-weight:normal;font-stretch:normal;font-size:119.51708221px;font-family:DFMaruGothic-UB;-inkscape-font-specification:DFMaruGothic-UB;letter-spacing:0.49798784px;fill:url(#linearGradient4331);fill-opacity:1;stroke:none;stroke-width:4;stroke-linecap:round;stroke-linejoin:round;stroke-miterlimit:4;stroke-dasharray:none;stroke-opacity:1"
         y="1269.4441"
         x="622.96625"
         id="tspan4323"
         sodipodi:role="line">PLAY</tspan></text>
    <path
       inkscape:connector-curvature="0"
       style="font-style:normal;font-variant:normal;font-weight:normal;font-stretch:normal;font-size:22px;line-height:125%;font-family:Arial;-inkscape-font-specification:Sans;letter-spacing:0px;word-spacing:0px;opacity:0.8;fill:url(#linearGradient4449);fill-opacity:1;stroke:#ffffff;stroke-width:1px;stroke-linecap:round;stroke-linejoin:round;stroke-opacity:0.75294119"
       d="m 859.00252,1180.4763 c 0.87047,1.3684 1.31579,2.9071 1.31579,4.6232 0,1.5553 -0.31143,3.0717 -0.93428,4.5493 l -18.10175,43.7423 0,27.5286 c 0,3.4216 -1.05106,6.1045 -3.15321,8.0485 -2.02428,1.9442 -4.47676,2.9162 -7.35748,2.9162 -2.29302,0 -4.36005,-0.6267 -6.20909,-1.8585 0.44366,0.7144 0.97152,1.3637 1.60775,1.9285 2.17999,1.9441 4.71034,2.9162 7.59105,2.9162 2.8807,0 5.3332,-0.9721 7.35748,-2.9162 2.10214,-1.944 3.1532,-4.627 3.1532,-8.0486 l 0,-27.5285 18.10175,-43.7425 c 0.62286,-1.4775 0.93429,-2.9938 0.93429,-4.5491 0,-2.5664 -0.97322,-4.7437 -2.91964,-6.5323 -0.44305,-0.407 -0.9065,-0.7626 -1.38586,-1.0771 z m -37.23119,0.016 c 0.77941,1.1344 1.4465,2.4704 1.99314,4.0242 l 6.89034,20.0632 1.05885,-2.6361 -4.95948,-14.441 c -1.14768,-3.2624 -2.80911,-5.5975 -4.98285,-7.0103 z m -116.75427,0.051 c 0.94813,1.5615 1.43257,3.3874 1.43257,5.4902 l 0,61.2393 c 0,2.0219 0.85642,3.0328 2.56927,3.0328 l 0.42238,0 c -1.1e-4,-0.016 -0.002,-0.03 -0.002,-0.047 l 0,-61.2394 c 0,-3.1884 -1.08999,-5.7546 -3.26999,-7.6986 -0.37072,-0.2881 -0.75734,-0.5405 -1.15228,-0.7777 z m 75.32853,0.35 c 0.784,1.1635 1.35445,2.4841 1.69534,3.9737 l 17.63459,75.5869 c 0.23358,0.9331 0.35037,1.8274 0.35038,2.6828 0,2.7995 -1.05107,4.938 -3.15323,6.4156 -2.02428,1.5553 -4.47675,2.3329 -7.35748,2.3329 -2.3674,0 -4.3105,-0.4098 -5.83538,-1.2227 1.49121,2.8022 4.42988,4.2089 8.82509,4.2089 2.88071,0 5.3332,-0.7777 7.35748,-2.333 2.10214,-1.4775 3.15322,-3.616 3.15322,-6.4155 0,-0.8555 -0.11678,-1.7497 -0.35037,-2.6828 l -17.6346,-75.587 c -0.62285,-2.7217 -1.98535,-4.8991 -4.08748,-6.5321 -0.19586,-0.1522 -0.39698,-0.2898 -0.59756,-0.4277 z m -110.41672,5.8089 c 4.16032,5.0908 6.24218,12.4094 6.24218,21.9606 0,9.1762 -2.14106,16.3306 -6.42319,21.463 -4.905,5.91 -12.30138,8.8652 -22.18923,8.8652 l -3.38678,0 0,22.5127 c 0,3.2661 -0.97321,5.7934 -2.91964,7.582 -1.86856,1.8663 -4.16534,2.7995 -6.89034,2.7995 -2.07218,0 -3.94066,-0.5421 -5.60765,-1.6213 0.40778,0.6661 0.89197,1.2737 1.47345,1.808 2.02428,1.8663 4.39891,2.7995 7.12391,2.7995 2.72499,0 5.02177,-0.9332 6.89034,-2.7995 1.94643,-1.7886 2.91964,-4.316 2.91964,-7.5821 l 0,-22.5127 3.38678,0 c 9.88782,0 17.28424,-2.9551 22.18922,-8.8652 4.28214,-5.1324 6.4232,-12.2867 6.4232,-21.4629 0,-11.615 -3.07975,-19.9281 -9.23189,-24.9468 z m -24.58917,10.9958 c -0.77857,0 -1.16785,0.5056 -1.16785,1.5166 l 0,20.0631 2.98971,0 0,-17.0771 c 0,-1.0109 0.38928,-1.5164 1.16785,-1.5164 l 2.21893,0 c 1.55142,0 2.87978,0.2917 4.00184,0.8516 -1.35525,-2.5511 -3.67993,-3.8378 -6.99155,-3.8378 l -2.21893,0 z m 125.37304,12.8311 c -0.23357,0 -0.38928,0.1556 -0.46714,0.4667 l -2.33571,19.5966 3.3459,0 1.09973,-9.2209 -1.17564,-10.3757 c 0,-0.3111 -0.15571,-0.4667 -0.46714,-0.4667 z m -5.95606,39.8932 -3.26999,14.8141 c -0.93428,4.4326 -3.89284,6.6488 -8.87568,6.6488 -2.70564,0 -5.01669,-0.6249 -6.94095,-1.8605 0.57946,1.0044 1.39054,1.8853 2.45639,2.6304 2.02428,1.4775 4.5157,2.2163 7.47426,2.2163 4.98284,0 7.94141,-2.2163 8.87569,-6.6488 l 3.26999,-14.8141 9.55889,0 -0.63647,-2.9862 -11.91212,0 z m -29.48246,3.9699 c 0.94436,1.5606 1.42283,3.3072 1.42283,5.2452 0,2.7995 -0.81751,5.249 -2.4525,7.3486 -1.71285,2.0997 -4.08748,3.1495 -7.12391,3.1495 l -28.61242,0 c -3.41214,0 -6.27578,-0.8603 -8.61099,-2.5506 0.43005,0.595 0.90002,1.1636 1.44037,1.6875 2.56927,2.5662 5.95605,3.8493 10.16032,3.8493 l 28.61243,0 c 3.03642,0 5.41106,-1.0498 7.12391,-3.1495 1.63499,-2.0996 2.4525,-4.5491 2.4525,-7.3487 0,-2.4885 -0.77857,-4.6659 -2.33571,-6.5322 -0.61053,-0.6969 -1.30348,-1.2624 -2.07683,-1.6991 z"
       id="text4292" />
    <path
       inkscape:connector-curvature="0"
       id="path4398"
       style="font-style:normal;font-variant:normal;font-weight:normal;font-stretch:normal;font-size:120px;line-height:125%;font-family:DFMaruGothic-UB;-inkscape-font-specification:DFMaruGothic-UB;letter-spacing:0.5px;word-spacing:0px;opacity:0.8;fill:url(#linearGradient4428);fill-opacity:1;stroke:#ffffff;stroke-width:4;stroke-linecap:round;stroke-linejoin:round;stroke-miterlimit:4;stroke-dasharray:none;stroke-opacity:0.39215686"
       d="m 815.89312,1178.8706 c -2.95856,0 -5.48891,0.9332 -7.59105,2.7995 -2.25785,2.0219 -3.38677,4.5103 -3.38677,7.4654 0,1.0109 0.27249,2.1774 0.8175,3.4994 l 17.28425,43.7424 0,27.5285 c 0,3.4995 1.05106,6.1823 3.15319,8.0486 0.24877,0.2219 0.50318,0.4276 0.76105,0.624 -1.27478,-1.7347 -1.92111,-3.9567 -1.92111,-6.6819 l 0,-27.5284 -17.28425,-43.7425 c -0.545,-1.3219 -0.8175,-2.4884 -0.8175,-3.4994 0,-2.955 1.12893,-5.4434 3.38678,-7.4653 2.10214,-1.8663 4.63249,-2.7995 7.59105,-2.7995 2.52803,0 4.67799,0.6819 6.45629,2.0334 -2.07331,-2.6806 -4.88908,-4.0242 -8.44943,-4.0242 z m 37.60492,0 c -5.6057,0 -9.53749,2.8772 -11.79533,8.6317 l -7.35165,18.3058 1.28659,3.7483 8.05819,-20.0633 c 2.25785,-5.7545 6.18963,-8.6317 11.79533,-8.6317 2.30312,0 4.34103,0.6795 6.11373,2.0334 -0.35227,-0.468 -0.75467,-0.917 -1.21653,-1.3414 -1.94642,-1.7886 -4.2432,-2.6828 -6.89033,-2.6828 z m -79.67881,0 c -6.61784,0 -10.58855,2.955 -11.91211,8.8651 l -17.05067,75.7036 c -0.15571,0.8553 -0.23357,1.6719 -0.23357,2.4495 0,2.8141 1.12517,5.0289 3.35953,6.6527 -0.91073,-1.3115 -1.36639,-2.8653 -1.36639,-4.6619 0,-0.7777 0.0778,-1.5942 0.23357,-2.4496 l 17.05067,-75.7035 c 1.32356,-5.9102 5.29426,-8.8651 11.91211,-8.8651 2.64386,0 5.01591,0.8147 7.11613,2.4437 -0.56626,-0.7319 -1.22612,-1.3952 -1.98535,-1.9849 -2.10214,-1.6331 -4.47677,-2.4496 -7.12391,-2.4496 z m 1.87635,36.6347 c -0.23357,0 -0.38928,0.1555 -0.46714,0.4666 l -0.4282,3.5869 1.58827,14.019 -3.25832,0 -0.23746,1.9907 5.48892,0 -2.21893,-19.5966 c 0,-0.3111 -0.15571,-0.4666 -0.46714,-0.4666 z m 4.38725,39.8931 2.72889,12.8234 c 0.47704,2.2632 1.55646,3.945 3.23106,5.0527 -0.5736,-0.8655 -0.9894,-1.8828 -1.23792,-3.062 l -3.15321,-14.8141 -1.56882,0 z m -81.38776,-76.5278 c -3.11428,0 -5.72249,0.8165 -7.82463,2.4496 -2.3357,1.8663 -3.50356,4.4325 -3.50356,7.6987 l 0,69.9878 c 0,4.2769 1.32358,7.6986 3.97071,10.2649 0.31789,0.3175 0.64975,0.614 0.99267,0.8923 -1.97623,-2.4183 -2.97024,-5.471 -2.97024,-9.1664 l 0,-69.9878 c 0,-3.2662 1.16786,-5.8325 3.50356,-7.6988 2.10214,-1.633 4.71035,-2.4495 7.82463,-2.4495 2.63796,0 4.94614,0.6931 6.93122,2.0626 -0.41331,-0.5746 -0.89591,-1.1097 -1.45009,-1.6038 -2.10214,-1.6331 -4.59357,-2.4496 -7.47427,-2.4496 z m 12.83667,74.3835 c 0.25779,1.3444 1.0733,2.0277 2.47,2.0277 l 18.68567,0 c 2.03617,0 3.7596,0.5003 5.17944,1.4853 -0.16216,-0.2292 -0.33193,-0.4562 -0.51581,-0.6766 -1.635,-1.8663 -3.85392,-2.7995 -6.65677,-2.7995 l -18.68567,0 c -0.16975,0 -0.32393,-0.017 -0.47686,-0.037 z m -71.61089,-72.2839 c -3.81498,0 -6.81247,1.0498 -8.99247,3.1495 -2.41357,2.2551 -3.62035,5.4823 -3.62035,9.6817 l 0,70.6877 c 0,3.266 0.97321,5.7934 2.91964,7.582 0.2888,0.2662 0.58645,0.5085 0.88951,0.7368 -1.204,-1.6549 -1.81602,-3.7592 -1.81602,-6.3281 l 0,-70.6876 c 0,-4.1994 1.20679,-7.4266 3.62036,-9.6818 2.18,-2.0996 5.17749,-3.1494 8.99247,-3.1494 l 10.62748,0 c 8.55194,0 15.18047,2.0616 19.89828,6.1725 -4.76409,-5.4368 -12.05652,-8.1633 -21.89142,-8.1633 l -10.62748,0 z m 17.2317,22.8958 c 1.19742,1.817 1.80433,4.4037 1.80433,7.7822 0,7.0765 -2.80285,10.6148 -8.40855,10.6148 l -1.39364,0 0,1.9908 3.38678,0 c 5.6057,0 8.40855,-3.5383 8.40855,-10.6148 0,-4.9084 -1.26994,-8.1605 -3.79747,-9.773 z" />
    <path
       sodipodi:type="inkscape:offset"
       inkscape:radius="-6.0551167"
       inkscape:original="M 698.2793 1179.5723 C 695.16687 1179.5723 692.55987 1180.3894 690.45898 1182.0234 C 688.12467 1183.8909 686.95703 1186.4585 686.95703 1189.7266 L 686.95703 1259.7559 C 686.95703 1264.0354 688.28022 1267.4596 690.92578 1270.0273 C 693.49353 1272.5951 696.87831 1273.8789 701.08008 1273.8789 L 729.67578 1273.8789 C 732.71039 1273.8789 735.08309 1272.8294 736.79492 1270.7285 C 738.42894 1268.6276 739.24609 1266.1762 739.24609 1263.375 C 739.24609 1260.8851 738.46832 1258.7053 736.91211 1256.8379 C 735.27809 1254.9704 733.06095 1254.0371 730.25977 1254.0371 L 711.58398 1254.0371 C 709.87215 1254.0371 709.01758 1253.027 709.01758 1251.0039 L 709.01758 1189.7266 C 709.01758 1186.5363 707.92674 1183.9687 705.74805 1182.0234 C 703.64716 1180.3894 701.15829 1179.5723 698.2793 1179.5723 z M 773.35938 1179.5723 C 766.74547 1179.5723 762.77591 1182.5298 761.45312 1188.4434 L 744.41211 1264.1914 C 744.25649 1265.0473 744.17969 1265.8645 744.17969 1266.6426 C 744.17969 1269.5216 745.34732 1271.7781 747.68164 1273.4121 C 749.70472 1274.8905 752.19359 1275.6309 755.15039 1275.6309 C 760.13027 1275.6309 763.08776 1273.4118 764.02148 1268.9766 L 767.28906 1254.1543 L 779.19531 1254.1543 L 782.3457 1268.9766 C 783.27943 1273.4118 786.50865 1275.6309 792.0332 1275.6309 C 794.9122 1275.6309 797.36364 1274.8511 799.38672 1273.2949 C 801.4876 1271.8165 802.53711 1269.6781 802.53711 1266.877 C 802.53711 1266.021 802.42093 1265.1251 802.1875 1264.1914 L 784.5625 1188.5605 C 783.94002 1185.8372 782.5794 1183.6575 780.47852 1182.0234 C 778.37763 1180.3894 776.00494 1179.5723 773.35938 1179.5723 z M 815.4082 1179.5723 C 812.4514 1179.5723 809.9212 1180.5075 807.82031 1182.375 C 805.56381 1184.3981 804.43555 1186.8869 804.43555 1189.8438 C 804.43555 1190.8553 804.70923 1192.0229 805.25391 1193.3457 L 822.52734 1237.1133 L 822.52734 1264.6582 C 822.52734 1268.1597 823.57685 1270.8454 825.67773 1272.7129 C 827.85643 1274.6582 830.38663 1275.6309 833.26562 1275.6309 C 836.14462 1275.6309 838.59411 1274.6582 840.61719 1272.7129 C 842.71807 1270.7676 843.76953 1268.0819 843.76953 1264.6582 L 843.76953 1237.1133 L 861.86133 1193.3457 C 862.48381 1191.8673 862.79492 1190.3492 862.79492 1188.793 C 862.79492 1186.2252 861.82222 1184.0475 859.87695 1182.2578 C 857.93169 1180.4682 855.63579 1179.5723 852.99023 1179.5723 C 847.38787 1179.5723 843.45768 1182.451 841.20117 1188.209 L 833.14844 1208.2852 L 826.26172 1188.209 C 824.23864 1182.451 820.62151 1179.5723 815.4082 1179.5723 z M 639.53906 1181.6738 C 635.72634 1181.6738 632.73143 1182.7233 630.55273 1184.8242 C 628.14061 1187.0807 626.93555 1190.3099 626.93555 1194.5117 L 626.93555 1265.2422 C 626.93555 1268.5102 627.9063 1271.0385 629.85156 1272.8281 C 631.87464 1274.6956 634.24929 1275.6309 636.97266 1275.6309 C 639.69603 1275.6309 641.98997 1274.6956 643.85742 1272.8281 C 645.80269 1271.0385 646.77539 1268.5102 646.77539 1265.2422 L 646.77539 1242.7168 L 650.16016 1242.7168 C 660.0421 1242.7168 667.43582 1239.7593 672.33789 1233.8457 C 676.61747 1228.7102 678.75586 1221.5508 678.75586 1212.3691 C 678.75586 1191.905 669.22375 1181.6738 650.16016 1181.6738 L 639.53906 1181.6738 z M 647.94336 1201.3984 L 650.16016 1201.3984 C 655.76252 1201.3984 658.56445 1205.0549 658.56445 1212.3691 C 658.56445 1219.4499 655.76252 1222.9902 650.16016 1222.9902 L 646.77539 1222.9902 L 646.77539 1202.916 C 646.77539 1201.9045 647.16525 1201.3984 647.94336 1201.3984 z M 773.24219 1214.2383 C 773.55343 1214.2383 773.70898 1214.3938 773.70898 1214.7051 L 775.92578 1234.3125 L 770.44141 1234.3125 L 772.77539 1214.7051 C 772.8532 1214.3938 773.00876 1214.2383 773.24219 1214.2383 z "
       style="font-style:normal;font-variant:normal;font-weight:normal;font-stretch:normal;font-size:21.91146469px;line-height:125%;font-family:Arial;-inkscape-font-specification:Sans;letter-spacing:0px;word-spacing:0px;fill:none;fill-opacity:1;stroke:#ffffff;stroke-width:1.99999996;stroke-linecap:round;stroke-linejoin:round;stroke-miterlimit:4;stroke-dasharray:none;stroke-opacity:1;opacity:0.5"
       id="path4203"
       d="m 698.2793,1185.627 c -2.02802,0 -3.1157,0.4264 -4.06446,1.1542 -0.956,0.7696 -1.20312,1.1443 -1.20312,2.9454 l 0,70.0293 c 0,3.0313 0.69184,4.5291 2.13086,5.9257 a 6.0557222,6.0557222 0 0 1 0.0645,0.065 c 1.39998,1.4 2.90466,2.0781 5.87305,2.0781 l 28.5957,0 c 1.58744,0 1.81279,-0.1876 2.375,-0.873 0.79923,-1.0465 1.14063,-1.9834 1.14063,-3.5762 0,-1.1976 -0.22865,-1.7846 -0.89453,-2.5996 -0.45656,-0.5192 -0.64235,-0.6836 -2.03711,-0.6836 l -18.67579,0 c -2.04689,0 -4.83259,-0.8762 -6.54687,-2.9023 -1.71428,-2.0262 -2.07422,-4.3215 -2.07422,-6.1856 l 0,-61.2773 c 0,-1.6967 -0.30761,-2.2659 -1.125,-3.0313 -0.9762,-0.713 -1.92907,-1.0683 -3.55859,-1.0683 z m 75.08008,0 c -2.40442,0 -3.62807,0.5037 -4.32032,1.0195 -0.69225,0.5158 -1.25106,1.2116 -1.67773,3.1191 a 6.0557222,6.0557222 0 0 1 0,0.01 l -16.9961,75.5527 c -0.0895,0.5091 -0.13085,0.9522 -0.13085,1.3184 0,1.2418 -0.046,1.1324 0.91992,1.8086 a 6.0557222,6.0557222 0 0 1 0.0996,0.072 c 0.89056,0.6508 1.95051,1.0528 3.89648,1.0528 1.59053,0 2.1448,-0.323 2.31836,-0.4532 0.17356,-0.1302 0.38365,-0.2388 0.62695,-1.3945 a 6.0557222,6.0557222 0 0 1 0.0117,-0.055 l 3.26758,-14.8222 a 6.0557222,6.0557222 0 0 1 5.91406,-4.752 l 11.90625,0 a 6.0557222,6.0557222 0 0 1 5.92188,4.7949 l 3.15039,14.8223 a 6.0557222,6.0557222 0 0 1 0.004,0.012 c 0.21891,1.0398 0.33852,1.0513 0.625,1.2481 0.28649,0.1968 1.18519,0.5996 3.13672,0.5996 1.78562,0 2.73789,-0.3692 3.66211,-1.0801 a 6.0557222,6.0557222 0 0 1 0.20703,-0.1523 c 0.62971,-0.4432 0.58008,-0.1782 0.58008,-1.4668 0,-0.3082 -0.0429,-0.7087 -0.16992,-1.2168 a 6.0557222,6.0557222 0 0 1 -0.0215,-0.094 l -17.625,-75.6309 a 6.0557222,6.0557222 0 0 1 -0.006,-0.025 c -0.35178,-1.539 -0.85724,-2.2976 -1.89844,-3.1075 -1.12911,-0.8782 -2.00356,-1.1757 -3.40234,-1.1757 z m 42.04882,0 c -1.6748,0 -2.51237,0.3435 -3.55468,1.2675 -1.15229,1.0359 -1.36329,1.5388 -1.36329,2.9493 0,-0.081 0.0244,0.3741 0.36329,1.1972 a 6.0557222,6.0557222 0 0 1 0.0332,0.082 l 17.27344,43.7676 a 6.0557222,6.0557222 0 0 1 0.42187,2.2227 l 0,27.5449 c 0,2.2916 0.42436,2.9117 1.11914,3.5293 a 6.0557222,6.0557222 0 0 1 0.01,0.01 c 1.18941,1.062 2.03956,1.3809 3.55468,1.3809 1.51515,0 2.16449,-0.2768 3.1543,-1.2285 a 6.0557222,6.0557222 0 0 1 0.084,-0.078 c 0.80127,-0.7419 1.21093,-1.4273 1.21093,-3.6113 l 0,-27.5449 a 6.0557222,6.0557222 0 0 1 0.45899,-2.3125 l 18.09179,-43.7676 a 6.0557222,6.0557222 0 0 1 0.0156,-0.037 c 0.3272,-0.7771 0.45898,-1.4539 0.45898,-2.2031 0,-1.0387 -0.0786,-1.2646 -0.96289,-2.0782 -0.93922,-0.864 -1.50856,-1.0878 -2.78711,-1.0878 -3.52813,0 -4.51717,0.6185 -6.15234,4.791 a 6.0557222,6.0557222 0 0 1 -0.0176,0.045 l -8.05273,20.0762 a 6.0557222,6.0557222 0 0 1 -11.3457,-0.2891 l -6.87305,-20.0332 c -0.74204,-2.112 -1.58711,-3.191 -2.28711,-3.748 -0.7,-0.5571 -1.36137,-0.8418 -2.85352,-0.8418 z m -175.86914,2.1015 c -2.70155,0 -3.87508,0.5794 -4.7832,1.4551 a 6.0557222,6.0557222 0 0 1 -0.0664,0.062 c -1.0422,0.975 -1.69922,2.2215 -1.69922,5.2656 l 0,70.7305 c 0,2.0689 0.36824,2.5836 0.96094,3.1289 a 6.0557222,6.0557222 0 0 1 0.008,0.01 c 1.02823,0.9492 1.67666,1.1973 3.01368,1.1973 1.33701,0 1.77441,-0.2002 2.60351,-1.0293 a 6.0557222,6.0557222 0 0 1 0.18164,-0.1758 c 0.59419,-0.5466 0.96289,-1.0624 0.96289,-3.1289 l 0,-22.5254 a 6.0557222,6.0557222 0 0 1 6.05469,-6.0547 l 3.38477,0 c 8.67381,0 13.88966,-2.3075 17.51562,-6.6816 a 6.0557222,6.0557222 0 0 1 0.01,-0.012 c 3.14281,-3.7714 5.01562,-9.3581 5.01562,-17.5997 0,-9.2919 -2.1318,-15.2518 -5.52539,-18.8945 -3.39359,-3.6427 -8.56706,-5.7461 -17.01562,-5.7461 l -10.6211,0 z m 8.4043,7.6153 2.2168,0 c 4.11851,0 8.52344,1.7398 11.10937,5.1152 2.58593,3.3753 3.34961,7.4798 3.34961,11.9101 0,4.3391 -0.78856,8.4122 -3.4082,11.7227 -2.61964,3.3105 -6.97413,4.9531 -11.05078,4.9531 l -3.38477,0 a 6.0557222,6.0557222 0 0 1 -6.05469,-6.0547 l 0,-20.0742 c 0,-1.2837 0.1647,-3.034 1.54883,-4.832 1.38413,-1.7981 3.97198,-2.7402 5.67383,-2.7402 z m 125.29883,12.8398 c 1.16403,0 3.12531,0.3832 4.63086,1.8887 1.50554,1.5054 1.89062,3.4686 1.89062,4.6328 l -0.0371,-0.6797 2.2168,19.6074 a 6.0557222,6.0557222 0 0 1 -6.01758,6.7344 l -5.48437,0 a 6.0557222,6.0557222 0 0 1 -6.01172,-6.7695 l 2.33398,-19.6075 a 6.0557222,6.0557222 0 0 1 0.13672,-0.7539 c 0.21159,-0.8465 0.62087,-2.0155 1.76953,-3.164 1.14866,-1.1486 3.11101,-1.8887 4.57227,-1.8887 z"
       transform="scale(1.0005957,0.99940469)" />
    <path
       transform="matrix(1.0005957,0,0,0.99940469,-4,-4)"
       d="m 698.2793,1185.627 c -2.02802,0 -3.1157,0.4264 -4.06446,1.1542 -0.956,0.7696 -1.20312,1.1443 -1.20312,2.9454 l 0,70.0293 c 0,3.0313 0.69184,4.5291 2.13086,5.9257 a 6.0557222,6.0557222 0 0 1 0.0645,0.065 c 1.39998,1.4 2.90466,2.0781 5.87305,2.0781 l 28.5957,0 c 1.58744,0 1.81279,-0.1876 2.375,-0.873 0.79923,-1.0465 1.14063,-1.9834 1.14063,-3.5762 0,-1.1976 -0.22865,-1.7846 -0.89453,-2.5996 -0.45656,-0.5192 -0.64235,-0.6836 -2.03711,-0.6836 l -18.67579,0 c -2.04689,0 -4.83259,-0.8762 -6.54687,-2.9023 -1.71428,-2.0262 -2.07422,-4.3215 -2.07422,-6.1856 l 0,-61.2773 c 0,-1.6967 -0.30761,-2.2659 -1.125,-3.0313 -0.9762,-0.713 -1.92907,-1.0683 -3.55859,-1.0683 z m 75.08008,0 c -2.40442,0 -3.62807,0.5037 -4.32032,1.0195 -0.69225,0.5158 -1.25106,1.2116 -1.67773,3.1191 a 6.0557222,6.0557222 0 0 1 0,0.01 l -16.9961,75.5527 c -0.0895,0.5091 -0.13085,0.9522 -0.13085,1.3184 0,1.2418 -0.046,1.1324 0.91992,1.8086 a 6.0557222,6.0557222 0 0 1 0.0996,0.072 c 0.89056,0.6508 1.95051,1.0528 3.89648,1.0528 1.59053,0 2.1448,-0.323 2.31836,-0.4532 0.17356,-0.1302 0.38365,-0.2388 0.62695,-1.3945 a 6.0557222,6.0557222 0 0 1 0.0117,-0.055 l 3.26758,-14.8222 a 6.0557222,6.0557222 0 0 1 5.91406,-4.752 l 11.90625,0 a 6.0557222,6.0557222 0 0 1 5.92188,4.7949 l 3.15039,14.8223 a 6.0557222,6.0557222 0 0 1 0.004,0.012 c 0.21891,1.0398 0.33852,1.0513 0.625,1.2481 0.28649,0.1968 1.18519,0.5996 3.13672,0.5996 1.78562,0 2.73789,-0.3692 3.66211,-1.0801 a 6.0557222,6.0557222 0 0 1 0.20703,-0.1523 c 0.62971,-0.4432 0.58008,-0.1782 0.58008,-1.4668 0,-0.3082 -0.0429,-0.7087 -0.16992,-1.2168 a 6.0557222,6.0557222 0 0 1 -0.0215,-0.094 l -17.625,-75.6309 a 6.0557222,6.0557222 0 0 1 -0.006,-0.025 c -0.35178,-1.539 -0.85724,-2.2976 -1.89844,-3.1075 -1.12911,-0.8782 -2.00356,-1.1757 -3.40234,-1.1757 z m 42.04882,0 c -1.6748,0 -2.51237,0.3435 -3.55468,1.2675 -1.15229,1.0359 -1.36329,1.5388 -1.36329,2.9493 0,-0.081 0.0244,0.3741 0.36329,1.1972 a 6.0557222,6.0557222 0 0 1 0.0332,0.082 l 17.27344,43.7676 a 6.0557222,6.0557222 0 0 1 0.42187,2.2227 l 0,27.5449 c 0,2.2916 0.42436,2.9117 1.11914,3.5293 a 6.0557222,6.0557222 0 0 1 0.01,0.01 c 1.18941,1.062 2.03956,1.3809 3.55468,1.3809 1.51515,0 2.16449,-0.2768 3.1543,-1.2285 a 6.0557222,6.0557222 0 0 1 0.084,-0.078 c 0.80127,-0.7419 1.21093,-1.4273 1.21093,-3.6113 l 0,-27.5449 a 6.0557222,6.0557222 0 0 1 0.45899,-2.3125 l 18.09179,-43.7676 a 6.0557222,6.0557222 0 0 1 0.0156,-0.037 c 0.3272,-0.7771 0.45898,-1.4539 0.45898,-2.2031 0,-1.0387 -0.0786,-1.2646 -0.96289,-2.0782 -0.93922,-0.864 -1.50856,-1.0878 -2.78711,-1.0878 -3.52813,0 -4.51717,0.6185 -6.15234,4.791 a 6.0557222,6.0557222 0 0 1 -0.0176,0.045 l -8.05273,20.0762 a 6.0557222,6.0557222 0 0 1 -11.3457,-0.2891 l -6.87305,-20.0332 c -0.74204,-2.112 -1.58711,-3.191 -2.28711,-3.748 -0.7,-0.5571 -1.36137,-0.8418 -2.85352,-0.8418 z m -175.86914,2.1015 c -2.70155,0 -3.87508,0.5794 -4.7832,1.4551 a 6.0557222,6.0557222 0 0 1 -0.0664,0.062 c -1.0422,0.975 -1.69922,2.2215 -1.69922,5.2656 l 0,70.7305 c 0,2.0689 0.36824,2.5836 0.96094,3.1289 a 6.0557222,6.0557222 0 0 1 0.008,0.01 c 1.02823,0.9492 1.67666,1.1973 3.01368,1.1973 1.33701,0 1.77441,-0.2002 2.60351,-1.0293 a 6.0557222,6.0557222 0 0 1 0.18164,-0.1758 c 0.59419,-0.5466 0.96289,-1.0624 0.96289,-3.1289 l 0,-22.5254 a 6.0557222,6.0557222 0 0 1 6.05469,-6.0547 l 3.38477,0 c 8.67381,0 13.88966,-2.3075 17.51562,-6.6816 a 6.0557222,6.0557222 0 0 1 0.01,-0.012 c 3.14281,-3.7714 5.01562,-9.3581 5.01562,-17.5997 0,-9.2919 -2.1318,-15.2518 -5.52539,-18.8945 -3.39359,-3.6427 -8.56706,-5.7461 -17.01562,-5.7461 l -10.6211,0 z m 8.4043,7.6153 2.2168,0 c 4.11851,0 8.52344,1.7398 11.10937,5.1152 2.58593,3.3753 3.34961,7.4798 3.34961,11.9101 0,4.3391 -0.78856,8.4122 -3.4082,11.7227 -2.61964,3.3105 -6.97413,4.9531 -11.05078,4.9531 l -3.38477,0 a 6.0557222,6.0557222 0 0 1 -6.05469,-6.0547 l 0,-20.0742 c 0,-1.2837 0.1647,-3.034 1.54883,-4.832 1.38413,-1.7981 3.97198,-2.7402 5.67383,-2.7402 z m 125.29883,12.8398 c 1.16403,0 3.12531,0.3832 4.63086,1.8887 1.50554,1.5054 1.89062,3.4686 1.89062,4.6328 l -0.0371,-0.6797 2.2168,19.6074 a 6.0557222,6.0557222 0 0 1 -6.01758,6.7344 l -5.48437,0 a 6.0557222,6.0557222 0 0 1 -6.01172,-6.7695 l 2.33398,-19.6075 a 6.0557222,6.0557222 0 0 1 0.13672,-0.7539 c 0.21159,-0.8465 0.62087,-2.0155 1.76953,-3.164 1.14866,-1.1486 3.11101,-1.8887 4.57227,-1.8887 z"
       id="path4205"
       style="font-style:normal;font-variant:normal;font-weight:normal;font-stretch:normal;font-size:21.91146469px;line-height:125%;font-family:Arial;-inkscape-font-specification:Sans;letter-spacing:0px;word-spacing:0px;opacity:0.5;fill:none;fill-opacity:1;stroke:#ff68c7;stroke-width:2;stroke-linecap:round;stroke-linejoin:round;stroke-miterlimit:4;stroke-dasharray:none;stroke-opacity:1"
       inkscape:original="M 698.2793 1179.5723 C 695.16687 1179.5723 692.55987 1180.3894 690.45898 1182.0234 C 688.12467 1183.8909 686.95703 1186.4585 686.95703 1189.7266 L 686.95703 1259.7559 C 686.95703 1264.0354 688.28022 1267.4596 690.92578 1270.0273 C 693.49353 1272.5951 696.87831 1273.8789 701.08008 1273.8789 L 729.67578 1273.8789 C 732.71039 1273.8789 735.08309 1272.8294 736.79492 1270.7285 C 738.42894 1268.6276 739.24609 1266.1762 739.24609 1263.375 C 739.24609 1260.8851 738.46832 1258.7053 736.91211 1256.8379 C 735.27809 1254.9704 733.06095 1254.0371 730.25977 1254.0371 L 711.58398 1254.0371 C 709.87215 1254.0371 709.01758 1253.027 709.01758 1251.0039 L 709.01758 1189.7266 C 709.01758 1186.5363 707.92674 1183.9687 705.74805 1182.0234 C 703.64716 1180.3894 701.15829 1179.5723 698.2793 1179.5723 z M 773.35938 1179.5723 C 766.74547 1179.5723 762.77591 1182.5298 761.45312 1188.4434 L 744.41211 1264.1914 C 744.25649 1265.0473 744.17969 1265.8645 744.17969 1266.6426 C 744.17969 1269.5216 745.34732 1271.7781 747.68164 1273.4121 C 749.70472 1274.8905 752.19359 1275.6309 755.15039 1275.6309 C 760.13027 1275.6309 763.08776 1273.4118 764.02148 1268.9766 L 767.28906 1254.1543 L 779.19531 1254.1543 L 782.3457 1268.9766 C 783.27943 1273.4118 786.50865 1275.6309 792.0332 1275.6309 C 794.9122 1275.6309 797.36364 1274.8511 799.38672 1273.2949 C 801.4876 1271.8165 802.53711 1269.6781 802.53711 1266.877 C 802.53711 1266.021 802.42093 1265.1251 802.1875 1264.1914 L 784.5625 1188.5605 C 783.94002 1185.8372 782.5794 1183.6575 780.47852 1182.0234 C 778.37763 1180.3894 776.00494 1179.5723 773.35938 1179.5723 z M 815.4082 1179.5723 C 812.4514 1179.5723 809.9212 1180.5075 807.82031 1182.375 C 805.56381 1184.3981 804.43555 1186.8869 804.43555 1189.8438 C 804.43555 1190.8553 804.70923 1192.0229 805.25391 1193.3457 L 822.52734 1237.1133 L 822.52734 1264.6582 C 822.52734 1268.1597 823.57685 1270.8454 825.67773 1272.7129 C 827.85643 1274.6582 830.38663 1275.6309 833.26562 1275.6309 C 836.14462 1275.6309 838.59411 1274.6582 840.61719 1272.7129 C 842.71807 1270.7676 843.76953 1268.0819 843.76953 1264.6582 L 843.76953 1237.1133 L 861.86133 1193.3457 C 862.48381 1191.8673 862.79492 1190.3492 862.79492 1188.793 C 862.79492 1186.2252 861.82222 1184.0475 859.87695 1182.2578 C 857.93169 1180.4682 855.63579 1179.5723 852.99023 1179.5723 C 847.38787 1179.5723 843.45768 1182.451 841.20117 1188.209 L 833.14844 1208.2852 L 826.26172 1188.209 C 824.23864 1182.451 820.62151 1179.5723 815.4082 1179.5723 z M 639.53906 1181.6738 C 635.72634 1181.6738 632.73143 1182.7233 630.55273 1184.8242 C 628.14061 1187.0807 626.93555 1190.3099 626.93555 1194.5117 L 626.93555 1265.2422 C 626.93555 1268.5102 627.9063 1271.0385 629.85156 1272.8281 C 631.87464 1274.6956 634.24929 1275.6309 636.97266 1275.6309 C 639.69603 1275.6309 641.98997 1274.6956 643.85742 1272.8281 C 645.80269 1271.0385 646.77539 1268.5102 646.77539 1265.2422 L 646.77539 1242.7168 L 650.16016 1242.7168 C 660.0421 1242.7168 667.43582 1239.7593 672.33789 1233.8457 C 676.61747 1228.7102 678.75586 1221.5508 678.75586 1212.3691 C 678.75586 1191.905 669.22375 1181.6738 650.16016 1181.6738 L 639.53906 1181.6738 z M 647.94336 1201.3984 L 650.16016 1201.3984 C 655.76252 1201.3984 658.56445 1205.0549 658.56445 1212.3691 C 658.56445 1219.4499 655.76252 1222.9902 650.16016 1222.9902 L 646.77539 1222.9902 L 646.77539 1202.916 C 646.77539 1201.9045 647.16525 1201.3984 647.94336 1201.3984 z M 773.24219 1214.2383 C 773.55343 1214.2383 773.70898 1214.3938 773.70898 1214.7051 L 775.92578 1234.3125 L 770.44141 1234.3125 L 772.77539 1214.7051 C 772.8532 1214.3938 773.00876 1214.2383 773.24219 1214.2383 z "
       inkscape:radius="-6.0551167"
       sodipodi:type="inkscape:offset" />
  </g>
</svg>
